<?xml version="1.0" encoding="UTF-8" standalone="no"?>
<!-- Created with Inkscape (http://www.inkscape.org/) -->

<svg
   xmlns:dc="http://purl.org/dc/elements/1.1/"
   xmlns:cc="http://creativecommons.org/ns#"
   xmlns:rdf="http://www.w3.org/1999/02/22-rdf-syntax-ns#"
   xmlns:svg="http://www.w3.org/2000/svg"
   xmlns="http://www.w3.org/2000/svg"
   xmlns:sodipodi="http://sodipodi.sourceforge.net/DTD/sodipodi-0.dtd"
   xmlns:inkscape="http://www.inkscape.org/namespaces/inkscape"
   id="svg2"
   version="1.1"
   inkscape:version="0.91 r13725"
   width="1059.6"
   height="324"
   viewBox="0 0 1059.6 324"
   sodipodi:docname="logo.svg">
  <metadata
     id="metadata8">
    <rdf:RDF>
      <cc:Work
         rdf:about="">
        <dc:format>image/svg+xml</dc:format>
        <dc:type
           rdf:resource="http://purl.org/dc/dcmitype/StillImage" />
        <dc:title></dc:title>
        <cc:license
           rdf:resource="http://creativecommons.org/licenses/by-nc/3.0/" />
      </cc:Work>
      <cc:License
         rdf:about="http://creativecommons.org/licenses/by-nc/3.0/">
        <cc:permits
           rdf:resource="http://creativecommons.org/ns#Reproduction" />
        <cc:permits
           rdf:resource="http://creativecommons.org/ns#Distribution" />
        <cc:requires
           rdf:resource="http://creativecommons.org/ns#Notice" />
        <cc:requires
           rdf:resource="http://creativecommons.org/ns#Attribution" />
        <cc:prohibits
           rdf:resource="http://creativecommons.org/ns#CommercialUse" />
        <cc:permits
           rdf:resource="http://creativecommons.org/ns#DerivativeWorks" />
      </cc:License>
    </rdf:RDF>
  </metadata>
  <defs
     id="defs6" />
  <sodipodi:namedview
     pagecolor="#ffffff"
     bordercolor="#666666"
     borderopacity="1"
     objecttolerance="10"
     gridtolerance="10"
     guidetolerance="10"
     inkscape:pageopacity="0"
     inkscape:pageshadow="2"
     inkscape:window-width="1600"
     inkscape:window-height="839"
     id="namedview4"
     showgrid="false"
     inkscape:zoom="1.44"
     inkscape:cx="345.61608"
     inkscape:cy="159.99169"
     inkscape:window-x="0"
     inkscape:window-y="27"
     inkscape:window-maximized="1"
     inkscape:current-layer="layer9" />
  <g
     inkscape:groupmode="layer"
     id="layer2"
     inkscape:label="0"
     style="display:inline;opacity:0.43000004">
    <path
       style="fill:#1e1118;fill-opacity:1"
       d="m 129.87521,313.95 c -2.37368,-0.47313 -8.08421,-2.16231 -12.75682,-3.77352 C 95.065005,302.57217 73.496055,286.9679 55.986426,265.95 38.736324,245.24362 26.620632,220.17069 21.629631,194.85 19.488185,183.98587 18.932353,175.74595 19.069676,156.9 c 0.199453,-27.37241 0.202441,-27.05226 -0.268693,-28.78568 l -0.444568,-1.63567 2.066516,-6.61804 C 23.768993,109.14482 27.531892,99.215943 31.313307,91.125 32.628039,88.311927 32.717382,88.2 33.648195,88.2 c 0.774963,0 1.274655,-0.316764 2.507343,-1.589442 1.346865,-1.390563 1.832421,-2.282094 3.880509,-7.125 3.298341,-7.799271 4.816494,-10.744344 5.714607,-11.085807 0.504354,-0.191754 1.016184,-0.901422 1.635957,-2.268306 1.898238,-4.186473 6.043218,-8.885067 15.013389,-17.018619 2.5575,-2.31897 5.902758,-5.441775 7.433907,-6.939567 2.248374,-2.199393 2.83902,-2.636694 3.070407,-2.273259 0.157575,0.2475 0.288567,0.61875 0.291093,0.825 0.0085,0.697677 0.647955,0.380652 2.804715,-1.390611 C 82.7442,33.79575 92.331663,28.620353 109.15601,21.43655 c 8.00485,-3.417976 9.7926,-4.081992 10.2,-3.788543 0.2717,0.195696 0.67463,0.441459 0.89541,0.546138 0.22078,0.10468 2.98828,-0.302581 6.15,-0.905023 8.12269,-1.54772 8.88085,-1.458396 4.98733,0.587591 -1.14881,0.603684 -2.08875,1.186934 -2.08875,1.29611 0,0.109176 1.65375,0.193704 3.675,0.18784 3.92773,-0.0114 8.86028,0.391914 9.07675,0.74216 0.0723,0.117013 -0.40475,0.423386 -1.06014,0.68083 -0.65538,0.257444 -1.19161,0.61394 -1.19161,0.792213 0,0.553434 5.86869,0.382114 9.45,-0.275866 3.84725,-0.70684 6.8127,-0.756583 9.3,-0.156 2.41203,0.582407 2.35169,0.598855 2.15901,-0.588503 -0.20029,-1.234208 0.0548,-1.468468 1.14688,-1.053257 0.44343,0.168592 4.24738,1.390965 8.45321,2.716385 8.93975,2.817257 10.77679,3.518204 16.52349,6.304761 4.8159,2.335211 5.55037,2.45891 8.76741,1.476614 2.27806,-0.695586 4.05854,-0.75039 6.16384,-0.189727 2.24328,0.597412 2.81911,1.000201 3.41405,2.388139 0.64696,1.509303 2.31573,3.06957 5.38924,5.038824 3.27573,2.09883 4.01611,1.916049 1.83287,-0.452487 C 211.19662,35.479239 210.98311,35.1 211.45148,35.1 c 0.13832,0 2.06207,1.189146 4.275,2.64255 16.72362,10.983663 31.0582,28.068138 37.61045,44.825529 0.74969,1.917318 1.36307,3.722388 1.36307,4.01127 0,0.463722 -0.0813,0.448839 -0.69434,-0.127056 -0.38188,-0.358761 -0.85438,-0.652293 -1.05,-0.652293 -0.44163,0 -0.43559,0.351333 0.067,3.9 0.222,1.5675 0.34009,3.27042 0.26241,3.784263 -0.0917,0.606774 0.27993,2.184177 1.06026,4.5 1.51101,4.484277 2.83325,9.330067 2.67513,9.803897 -0.0664,0.19901 -0.56628,-0.98816 -1.11081,-2.63816 -2.35374,-7.132203 -5.21401,-13.773939 -7.73202,-17.95431 l -1.0567,-1.754307 -0.72262,0.779307 C 245.76481,86.903913 245.43808,87 243.74841,87 c -1.63227,0 -1.97739,0.0936 -2.25452,0.611424 -0.62489,1.167609 0.67393,6.613968 1.82587,7.656459 0.61641,0.557847 0.63451,0.555609 1.16204,-0.143751 0.30657,-0.406437 0.68473,-0.618426 0.88375,-0.495423 0.76778,0.474516 2.05464,3.666288 2.24623,5.571291 0.10786,1.0725 0.59773,3.6375 1.08858,5.7 1.39608,5.86609 1.1729,6.61503 -0.93486,3.13724 -1.00728,-1.66201 -1.7655,-2.11411 -1.7655,-1.05273 0,1.65767 2.34011,7.61812 3.64702,9.28922 0.55746,0.71282 0.55633,0.73404 -0.0753,1.40632 -0.37588,0.40011 -0.70328,1.23292 -0.79114,2.01242 -0.19861,1.76207 0.38469,5.97686 0.98884,7.14516 0.44675,0.86393 0.56593,0.9174 1.65597,0.7431 0.90248,-0.14431 1.17457,-0.0892 1.17457,0.23785 0,0.23412 -0.68842,2.29447 -1.52982,4.57855 -1.76162,4.78213 -2.35762,7.28408 -2.36497,9.92787 -0.003,1.03125 -0.12665,1.875 -0.27508,1.875 -0.14843,0 -0.51547,-0.68299 -0.81565,-1.51775 -0.88111,-2.45029 -1.31448,-2.5114 -1.31448,-0.18535 0,1.85403 -0.0487,1.9936 -0.825,2.3641 -0.71927,0.34328 -0.83404,0.58567 -0.89551,1.89137 -0.23457,4.98219 -1.31498,8.50353 -4.90599,15.98989 -2.44443,5.09604 -3.5735,8.15744 -3.5735,9.68934 0,1.24704 -0.45084,1.07741 -1.67864,-0.6316 -0.59271,-0.825 -1.18788,-1.5 -1.32261,-1.5 -0.33147,0 -2.60014,3.62463 -3.35151,5.35465 -0.49247,1.13392 -0.57216,1.77303 -0.42538,3.41118 0.24684,2.75486 -0.87875,5.70289 -1.46826,3.8455 -0.10276,-0.32377 -0.0444,-0.85489 0.12978,-1.18028 0.17414,-0.32538 0.31662,-0.74023 0.31662,-0.92188 0,-0.67948 -1.40999,0.44533 -5.25,4.1882 -5.22154,5.08943 -8.41282,7.80263 -9.17751,7.80263 -0.35462,0 -1.50385,0.80353 -2.62649,1.83643 -1.0978,1.01004 -2.3335,2.04685 -2.746,2.30403 -0.4125,0.25718 -1.16787,0.85453 -1.67861,1.32745 -1.75965,1.62938 -7.94075,3.9375 -16.92139,6.31871 l -4.65,1.23295 -6.45,0.0152 c -17.47809,0.0412 -26.37092,-1.70141 -38.25,-7.49548 -12.77117,-6.22918 -22.2924,-14.53838 -28.24108,-24.64605 -5.0005,-8.49657 -8.32797,-21.06961 -7.55105,-28.53212 1.1555,-11.09903 5.59816,-23.23605 13.12612,-35.85964 9.60482,-16.106254 21.52343,-26.978521 34.21601,-31.212169 4.73056,-1.577892 8.12847,-2.093628 13.95,-2.117334 5.69955,-0.02322 7.61188,0.214797 12.04271,1.4988 10.68943,3.097677 19.49094,12.05583 22.25745,22.653573 3.38726,12.97568 -0.10764,25.80091 -11.02968,40.47564 -9.12523,12.26055 -20.22656,19.2 -30.71506,19.2 -1.70958,0 -4.40542,-0.8947 -4.40542,-1.46208 0,-0.11471 -0.41893,-0.45602 -0.93096,-0.75848 -0.75214,-0.44431 -1.2718,-0.51137 -2.70548,-0.34917 -2.15861,0.24422 -7.61478,1.73374 -13.46356,3.67554 l -4.35,1.44419 0.0483,1.0124 c 0.0711,1.48946 3.38968,7.89693 5.62744,10.86526 8.73324,11.58443 24.74412,18.84514 43.37424,19.66961 3.70309,0.16388 4.32834,0.11171 7.29903,-0.60902 1.78696,-0.43354 3.71205,-0.78825 4.27797,-0.78825 0.85813,0 1.40453,-0.34824 3.29121,-2.09759 1.24424,-1.15368 2.54572,-2.2493 2.89218,-2.43472 l 0.62993,-0.33713 -0.64515,0.90603 c -0.35483,0.49832 -0.64515,1.12144 -0.64515,1.38472 0,1.87191 4.89484,-1.5958 15.49499,-10.97729 6.14884,-5.44193 6.19831,-5.5161 6.1403,-9.20647 -0.0289,-1.84045 0.1054,-2.58977 0.68727,-3.83382 0.64435,-1.37766 0.96062,-1.67209 2.90023,-2.7 l 2.17701,-1.15373 1.60686,-4.1666 c 1.96552,-5.09658 2.75673,-8.01505 2.99797,-11.0584 0.19444,-2.45292 -0.0414,-2.88417 -0.9023,-1.65 -0.61899,0.88736 -0.6182,0.39427 0.004,-2.625 0.40789,-1.97851 0.50393,-4.61281 0.54684,-15 0.0476,-11.51984 0.008,-12.65144 -0.46297,-13.2 -0.3435,-0.40016 -0.58208,-1.39937 -0.71632,-3 C 228.41372,100.89767 222.60457,87.141483 213.76553,75.388446 205.33169,64.174191 195.55585,55.750242 185.25,50.816304 172.86906,44.888913 153.155,42.117378 138.6438,44.2641 c -2.771,0.409929 -3.5368,0.433998 -4.10657,0.129063 -0.82681,-0.442494 -3.02866,-0.2538 -7.46399,0.639654 -4.03515,0.812844 -6.85345,1.95432 -11.12324,4.505178 -3.91398,2.338287 -6.31942,3.448536 -9.65831,4.457862 -3.82689,1.156848 -3.56382,2.304741 0.32004,1.396491 2.77997,-0.6501 3.09132,-0.649317 2.55,0.0064 -0.7251,0.878361 -2.75862,1.564305 -5.67368,1.913838 -6.720962,0.805887 -8.748725,1.41804 -12.230798,3.692307 C 88.780098,62.622819 84,66.826629 84,67.387218 c 0,0.572559 0.566043,0.516141 1.878354,-0.187218 0.615711,-0.33 1.18746,-0.6 1.27056,-0.6 0.369507,0 0.0891,0.774639 -0.614181,1.696683 -0.582981,0.764328 -0.993876,1.005063 -1.725,1.010652 -3.651618,0.0279 -8.956923,2.78397 -15.503073,8.053728 C 65.625723,80.324277 58.345752,87.414834 54.482004,91.8 50.183736,96.678324 45.3,103.07424 45.3,103.82509 c 0,0.14176 0.43875,0.37486 0.975,0.51798 0.783261,0.20905 0.965742,0.40373 0.927915,0.98996 -0.05143,0.79703 -2.482263,5.90948 -6.668538,14.02505 -2.862552,5.54937 -3.745386,8.16185 -4.069329,12.04192 -0.10332,1.2375 -0.653004,6.705 -1.221522,12.15 -1.2444,11.91825 -1.63662,17.30781 -1.640559,22.54321 -0.0063,8.38207 1.039773,13.70526 3.536322,17.99532 0.504513,0.86695 0.518436,1.21013 0.182544,4.5 l -0.363624,3.56147 0.904524,2.1 c 0.49749,1.155 1.180884,2.55571 1.518654,3.11269 l 0.61413,1.01268 -0.697899,0.52643 -0.697899,0.52642 0.969297,2.81089 c 2.028,5.88105 4.408305,9.59287 6.398421,9.97763 4.137534,0.79992 4.20462,0.82669 5.614074,2.2401 0.764094,0.76623 1.919928,2.26871 2.568519,3.33882 1.609344,2.65525 4.060803,8.19718 3.762114,8.50487 -0.349125,0.35964 -1.962057,-0.55098 -3.544188,-2.00098 l -1.363428,-1.24955 0.186027,1.16906 c 0.264972,1.66522 2.814678,6.72518 5.131464,10.18356 1.08789,1.62394 1.977981,3.08765 1.977981,3.25268 0,0.16503 -0.27,0.64331 -0.6,1.06284 -0.33,0.41952 -0.6,0.99431 -0.6,1.27731 0,0.68878 1.435584,2.63228 3.206391,4.34083 1.27743,1.23252 1.383174,1.42743 0.918609,1.69319 -1.45551,0.83266 0.0502,3.54378 7.885311,14.19793 2.011278,2.73493 3.829809,4.9726 4.041183,4.9726 0.211371,0 0.462018,-0.2025 0.556995,-0.45 0.287874,-0.75019 0.731481,-0.50668 0.956415,0.525 0.530853,2.43479 3.805041,8.03112 6.581925,11.25 1.095027,1.26932 1.109094,1.275 3.159015,1.275 l 2.059089,0 1.340877,1.725 c 2.673603,3.43951 7.045149,7.11625 9.375432,7.88531 0.560316,0.18492 1.018758,0.50165 1.018758,0.70385 0,0.2022 -0.408993,0.92378 -0.908874,1.60351 l -0.908871,1.23588 0.675624,0.47322 c 0.371595,0.26028 0.814335,0.47455 0.983871,0.47616 0.6997,0.007 3.69292,1.6137 5.53575,2.97211 2.99596,2.20843 8.50245,4.82371 8.87776,4.21644 0.0987,-0.15964 -0.0576,-0.69137 -0.34716,-1.18163 -1.23697,-2.09401 0.19849,-1.04272 4.32819,3.16985 5.54044,5.65161 8.30237,7.55055 13.41371,9.22245 3.21284,1.0509 6.93421,1.91109 11.97489,2.76795 2.29618,0.3903 4.31443,0.84921 4.485,1.01979 0.48079,0.48078 -15.94608,0.35613 -18.43468,-0.13989 z m 20.06332,-178.00242 c 3.63501,-1.58309 12.0207,-6.19308 15.76448,-8.66644 3.53357,-2.33447 6.28147,-4.94074 7.09163,-6.72612 0.53534,-1.17975 0.59281,-1.98541 0.59877,-8.39329 0.005,-5.38302 -0.0854,-7.16459 -0.37567,-7.40551 -0.58992,-0.48959 -6.23425,-1.55367 -9.31459,-1.75601 -2.55742,-0.168 -2.87383,-0.12494 -4.25794,0.57934 -6.11649,3.11231 -15.21639,12.15138 -21.19386,21.05219 -2.07757,3.09363 -3.85135,6.48237 -3.85135,7.35786 0,1.09404 4.72951,4.085 7.8337,4.95407 2.41759,0.67684 4.47399,0.41099 7.70483,-0.99609 z M 334.59681,246.825 c -0.13122,-0.20625 -0.73218,-1.67635 -1.33545,-3.26689 -3.90303,-10.29045 -15.98595,-34.36504 -34.53438,-68.80811 -7.48474,-13.89861 -7.68527,-14.25005 -8.13049,-14.24981 -0.69202,3e-4 -3.82168,2.74737 -5.88993,5.16976 -2.86312,3.35337 -6.02775,7.84036 -10.90476,15.46134 -6.06738,9.4811 -9.40177,14.07295 -10.73868,14.78845 -1.15713,0.61927 -4.19044,-1.6211 -5.39703,-3.98621 -0.79818,-1.56455 -1.45435,-4.71733 -1.46088,-7.01923 -0.0132,-4.65119 -1.46993,-9.4044 -3.69211,-12.04708 -1.75389,-2.08577 -1.90252,-5.79761 -0.35853,-8.95342 0.81874,-1.67344 1.83286,-2.52794 4.7302,-3.98567 4.89939,-2.46502 13.68414,-12.85344 17.63783,-20.85763 2.72476,-5.51626 3.5959,-10.05244 2.57295,-13.39782 -0.22245,-0.72747 -2.53877,-5.03518 -5.14738,-9.57268 -5.60782,-9.75441 -8.06784,-14.68862 -9.61167,-19.278741 -0.98357,-2.924382 -1.1512,-3.828573 -1.2646,-6.821259 -0.11517,-3.039327 -0.0507,-3.662154 0.54167,-5.232267 0.93429,-2.476476 2.73491,-4.15782 6.4446,-6.017733 l 2.99183,-1.5 3,0.004 c 2.60178,0.0035 3.22328,0.10815 4.68209,0.788757 1.70195,0.794043 2.92019,2.052381 3.59041,3.708591 0.20002,0.494271 0.45974,2.923671 0.57717,5.398671 0.17714,3.733449 0.35205,4.908825 1.02684,6.9 0.89794,2.64966 7.21007,14.506121 7.85438,14.753371 0.59214,0.22722 3.8444,-1.68203 6.93827,-4.07313 3.98279,-3.07811 7.7717,-7.018828 14.69411,-15.282925 9.68343,-11.560254 12.76548,-15.076932 15.31359,-17.472969 3.89418,-3.661791 8.76708,-6.635382 13.69503,-8.357085 2.88732,-1.008756 7.67676,-1.956165 8.51178,-1.683732 0.28398,0.09265 0.96135,0.97977 1.50525,1.971378 1.3044,2.378067 4.13388,5.365008 6.69504,7.067676 1.13634,0.755421 2.05677,1.531875 2.0454,1.725456 -0.0114,0.193578 -1.23882,1.29696 -2.72775,2.45196 -3.57357,2.772132 -11.23767,10.192689 -16.7142,16.183029 -12.01842,13.146042 -28.0287,33.049272 -34.89102,43.374862 -3.42072,5.14708 -3.33396,4.52619 -1.07157,7.66765 7.41228,10.29245 11.76015,17.36555 18.8865,30.72446 8.15865,15.29406 31.13868,60.52099 31.13868,61.28394 0,0.24948 -2.53125,2.42527 -5.625,4.8351 -6.03318,4.69946 -9.5376,6.77284 -12.71241,7.52123 -2.33847,0.55125 -2.5647,0.55793 -2.86578,0.0847 z M 164.79255,175.98114 C 161.78251,175.15535 159.9,174.3311 159.9,173.83895 c 0,-0.27659 1.53286,-0.40421 6.075,-0.50578 3.34125,-0.0747 6.21,-0.19149 6.375,-0.2595 0.165,-0.068 0.36003,0.009 0.4334,0.17009 0.0734,0.16157 -0.70435,1.00532 -1.72827,1.875 -2.16375,1.83781 -2.52553,1.88763 -6.26258,0.86238 z m 22.45436,-10.75001 -1.00308,-0.61917 1.75308,-0.93098 c 1.40339,-0.74527 2.00742,-1.31801 3.02809,-2.87123 1.49882,-2.28085 1.66015,-1.96424 0.34335,0.67381 -1.3022,2.6088 -2.46453,4.41973 -2.81835,4.39105 -0.165,-0.0134 -0.75139,-0.30294 -1.30309,-0.64348 z M 185.4,163.1908 c 0,-0.88215 0.8575,-2.57381 2.32154,-4.5799 2.02387,-2.77317 1.47248,-1.14177 -1.09314,3.23434 -0.95119,1.6224 -1.2284,1.92606 -1.2284,1.34556 z m 11.14163,-23.26749 c -0.76911,-2.00982 -0.79157,-2.56666 -0.15745,-3.90297 0.9971,-2.10123 1.91582,-0.95732 1.91582,2.3854 0,3.69524 -0.69536,4.29537 -1.75837,1.51757 z M 16.806589,107.625 c 0.0069,-2.26143 0.620776,-4.17981 1.595868,-4.98673 0.646596,-0.53508 0.650649,-0.1744 0.03258,2.89938 -0.960623,4.77739 -1.639234,5.64724 -1.62845,2.08735 z m 7.038165,-23.1 c 0.118102,-0.37125 0.446571,-1.6875 0.72993,-2.925 l 0.515198,-2.25 1.105059,-0.09311 C 27.241773,79.16869 27.3,79.21085 27.3,80.05702 c 0,1.39827 -1.048757,3.497088 -2.177754,4.358214 -1.260568,0.961485 -1.556532,0.986913 -1.277492,0.109767 z M 146.86766,18.440459 C 146.32099,18.026974 146.35163,18 147.36812,18 c 1.305,0 2.08853,0.265642 1.86245,0.631435 -0.25746,0.41659 -1.71543,0.298754 -2.36291,-0.190976 z"
       id="path4138"
       inkscape:connector-curvature="0" />
  </g>
  <g
     inkscape:groupmode="layer"
     id="layer3"
     inkscape:label="1"
     style="display:inline;opacity:0.6">
    <path
       inkscape:connector-curvature="0"
       id="path4140"
       d="m 305.1,197.822 c -8.18713,-0.70732 -14.61789,-1.64571 -20.53678,-2.99675 -5.69811,-1.30064 -5.64439,-1.28084 -5.47905,-2.0202 0.0806,-0.36028 0.68172,-2.74755 1.33589,-5.30505 0.65417,-2.5575 1.63767,-7.0125 2.18556,-9.9 0.54789,-2.8875 1.03526,-5.30075 1.08305,-5.36278 0.0478,-0.062 0.99198,0.71658 2.09821,1.73025 7.11798,6.52233 16.943,9.91251 28.76312,9.9249 13.48107,0.0141 21.37959,-4.51587 23.36706,-13.40159 1.54575,-6.91091 -0.61392,-12.99375 -6.1518,-17.32682 -3.45819,-2.70585 -5.61711,-3.70355 -25.13994,-11.61796 -5.67858,-2.30204 -10.94358,-4.6112 -11.7,-5.13145 -2.35391,-1.61896 -6.21793,-5.55646 -7.81271,-7.96129 -3.67158,-5.53648 -5.35628,-13.25511 -4.57881,-20.97826 0.80328,-7.979445 3.05397,-12.98223 8.14786,-18.110853 4.93415,-4.967796 11.98423,-8.595582 20.26834,-10.429572 5.80296,-1.284693 9.59106,-1.647651 17.25,-1.65282 7.92015,-0.0053 11.65515,0.373899 17.68917,1.796109 3.5271,0.831324 9.61083,2.817336 9.61083,3.137409 0,0.115137 -0.74031,2.054298 -1.64517,4.309248 -0.90483,2.254947 -2.27268,6.085662 -3.03966,8.512695 -0.76701,2.427033 -1.44498,4.469844 -1.50666,4.539582 -0.0616,0.06974 -0.69702,-0.483672 -1.41195,-1.229799 -4.24332,-4.428561 -9.8052,-7.175136 -16.60551,-8.200155 -9.99024,-1.505832 -19.66047,0.87075 -25.02546,6.15033 -3.02988,2.981649 -4.45128,6.432216 -4.46115,10.829836 -0.005,2.19066 0.83925,5.89847 1.74885,7.68145 1.04877,2.05573 3.23949,4.7029 5.22156,6.30946 3.74745,3.0375 3.99039,3.15403 24.58935,11.79534 5.39781,2.26439 10.39281,4.45742 11.1,4.87339 3.55494,2.09104 7.74519,6.55189 9.84501,10.48076 2.66793,4.99184 3.74037,11.65316 3.01839,18.74845 -1.8198,17.88457 -13.35978,27.8644 -35.1276,30.37851 -2.94129,0.3397 -14.71092,0.63404 -17.1,0.42763 z"
       style="fill:#1e1118;fill-opacity:1" />
  </g>
  <g
     inkscape:groupmode="layer"
     id="layer4"
     inkscape:label="2"
     style="display:inline"
     sodipodi:insensitive="true">
    <path
       style="fill:#99979c;fill-opacity:1"
       d="m 309.75,193.29249 c -8.61078,-0.57037 -25.42687,-3.66194 -25.84496,-4.75149 -0.0831,-0.21664 0.46486,-2.86823 1.21777,-5.89244 0.75292,-3.02421 1.78159,-7.65856 2.28595,-10.29856 1.22807,-6.42822 1.15861,-6.15 1.53547,-6.15 0.18305,0 1.25047,0.86568 2.37206,1.92373 6.55632,6.18489 15.39117,9.50832 26.53371,9.98122 9.76053,0.41426 16.68198,-1.4424 20.8719,-5.59882 2.24607,-2.22809 3.3735,-4.29065 4.02396,-7.36136 1.26267,-5.96095 -0.21291,-11.05777 -4.38453,-15.14477 -3.6159,-3.54256 -5.3337,-4.38529 -25.76133,-12.63833 -5.6925,-2.29985 -11.07888,-4.61582 -11.96976,-5.14661 -2.13456,-1.27179 -6.35229,-5.26523 -7.97031,-7.54648 -0.70943,-1.00022 -1.76255,-2.76358 -2.34025,-3.91858 -4.2786,-8.55412 -4.2786,-21.145882 0,-29.700004 4.32073,-8.638362 13.45471,-14.955618 25.73032,-17.795652 5.56371,-1.287198 9.51717,-1.670628 17.4,-1.687563 7.66911,-0.01647 10.06686,0.189063 16.05,1.375815 3.39039,0.672477 10.91256,2.984832 11.78496,3.622752 0.50106,0.366375 0.46296,0.551454 -0.6357,3.087195 -1.53306,3.538356 -3.19242,8.179266 -4.44192,12.423069 -0.5547,1.88409 -1.07538,3.492411 -1.15701,3.574044 -0.0816,0.08164 -1.09827,-0.816621 -2.25921,-1.996122 -3.51381,-3.569982 -7.6251,-5.973177 -12.32445,-7.204047 -10.99464,-2.879772 -23.1327,-0.501972 -28.89732,5.660868 -5.35731,5.727399 -4.84704,15.611085 1.11855,21.665435 4.01823,4.078 5.52273,4.83156 29.7621,14.9069 6.93315,2.88184 8.37528,3.68001 11.61531,6.42874 7.15968,6.07398 10.49943,15.87993 9.26643,27.20738 -1.82646,16.77917 -12.26289,26.7031 -31.53174,29.98333 -6.05388,1.03058 -15.22449,1.44247 -22.05,0.99035 z"
       id="path4138-3"
       inkscape:connector-curvature="0" />
  </g>
  <g
     inkscape:groupmode="layer"
     id="layer5"
     inkscape:label="3"
     style="display:inline;opacity:0.6">
    <path
       style="fill:#1e1118;fill-opacity:1"
       d="m 545.4,198.71547 c -14.59566,-1.34187 -25.26834,-5.99886 -33.5136,-14.62354 -6.46596,-6.76353 -10.27485,-14.81484 -12.1542,-25.69194 -0.88638,-5.13002 -0.94863,-16.90782 -0.11814,-22.35 3.79086,-24.84117 18.41325,-38.387374 42.48594,-39.359026 9.77535,-0.394566 18.45504,1.531836 24.85533,5.516486 9.56367,5.95407 15.15105,16.15229 16.5693,30.24254 0.39909,3.96482 0.1896,14.5475 -0.31419,15.87257 l -0.29457,0.77473 -32.18292,0.0764 -32.18295,0.0763 0.0959,1.8 c 0.14082,2.64323 1.11114,8.01053 2.00673,11.1 1.9011,6.5582 4.51509,11.32053 8.39739,15.29881 5.87919,6.02455 13.08249,8.90238 23.43519,9.36274 10.65921,0.47399 19.31364,-2.11182 26.44632,-7.90175 0.53985,-0.43821 1.053,-0.72529 1.14033,-0.63795 0.0873,0.0873 -0.1836,1.35565 -0.60204,2.81847 -0.97746,3.41692 -1.82064,7.59026 -2.28042,11.28717 l -0.36408,2.92748 -1.53765,0.44571 c -6.29946,1.82598 -13.75485,2.8376 -21.93765,2.97672 -3.63,0.0617 -7.2075,0.0563 -7.95,-0.0119 z m 19.4538,-61.61548 c 0.17088,-2.22235 -0.54732,-9.07198 -1.30089,-12.40695 -2.05335,-9.08739 -6.42717,-14.57102 -13.47939,-16.89974 -2.17731,-0.71898 -2.88066,-0.80202 -6.92352,-0.81742 -3.82686,-0.0146 -4.85901,0.0857 -6.9,0.67045 -10.13667,2.90409 -15.68862,11.58166 -17.54682,27.42535 -0.18846,1.60694 -0.25779,3.05902 -0.15408,3.22686 0.12588,0.20368 7.83945,0.27961 23.19474,0.22831 l 23.00616,-0.0769 0.1038,-1.35 z M 625.5,198.56515 c -6.07119,-0.53754 -14.84643,-2.10052 -21.3,-3.7938 l -3.15,-0.8265 0.0361,-1.04743 c 0.0198,-0.57608 0.25794,-2.72783 0.52911,-4.78167 1.49159,-11.29707 1.53479,-12.88095 1.53479,-56.26576 0,-37.579042 -0.0421,-41.077009 -0.53316,-44.308951 -1.19436,-7.860423 -3.22524,-13.171512 -6.05211,-15.82722 -0.4206,-0.395127 -0.76473,-0.815937 -0.76473,-0.935133 0,-0.119193 1.18125,-0.378885 2.625,-0.577089 6.93096,-0.951513 14.2257,-2.964531 20.72709,-5.719746 1.90434,-0.807033 3.52716,-1.402593 3.6063,-1.323465 0.0791,0.07913 -0.0849,2.539611 -0.3645,5.46774 -1.01898,10.671012 -1.14774,13.735035 -1.30476,31.048869 -0.11055,12.187995 -0.0629,17.624995 0.1545,17.624995 0.17289,0 0.87084,-1.00813 1.551,-2.24029 7.30611,-13.23538 18.79173,-19.494933 33.3189,-18.15846 8.6832,0.79884 14.80521,3.41741 19.96344,8.53901 1.33485,1.32536 2.97039,3.21974 3.63456,4.20974 5.44374,8.11444 7.95255,19.12593 7.48443,32.85 -0.38085,11.16464 -2.26395,19.61103 -6.20598,27.8361 -9.88722,20.62969 -29.37108,30.5416 -55.48998,28.22906 z m 19.65,-11.61379 c 3.26088,-0.70004 6.81591,-2.0433 9.45,-3.57066 2.84727,-1.65098 7.60842,-6.52417 9.28782,-9.50635 3.75612,-6.66989 5.54916,-14.17297 5.92044,-24.77436 0.6099,-17.41334 -4.64532,-30.11983 -14.45826,-34.95841 -3.36435,-1.6589 -5.41191,-2.07432 -10.2,-2.06943 -4.8003,0.005 -6.75357,0.41295 -10.35,2.16215 -3.29862,1.60435 -6.88728,5.26448 -8.78778,8.96284 -2.56449,4.99047 -4.04094,10.76347 -4.70652,18.40285 -0.1653,1.8975 -0.30171,12.59959 -0.30312,23.78243 l -0.003,20.33243 0.70641,0.26857 c 0.71277,0.271 7.12233,1.3873 9.34359,1.6273 2.88006,0.31119 11.44464,-0.0893 14.1,-0.65936 z m 123.15,11.79087 c -0.2475,-0.0485 -1.4625,-0.25224 -2.7,-0.45278 -8.3556,-1.35403 -15.49077,-6.66787 -19.57716,-14.57991 -2.62248,-5.07756 -3.76086,-10.8492 -3.41952,-17.33696 0.31911,-6.06552 1.63773,-10.33506 4.54701,-14.72259 5.70975,-8.61104 16.34187,-13.6434 32.99967,-15.61929 2.56671,-0.30445 7.99161,-0.57257 13.95,-0.68945 l 9.75,-0.19126 0.0919,-3.3 c 0.45837,-16.4618 -6.52938,-24.72578 -20.34189,-24.05709 -6.16836,0.29862 -11.74224,1.74741 -17.55,4.5617 -4.59264,2.22547 -7.6521,4.32995 -10.78401,7.41793 -2.51859,2.48325 -3.46599,2.9975 -3.46599,1.88133 0,-0.97586 -2.23677,-7.35271 -3.75813,-10.71418 -1.15773,-2.558 -1.49421,-3.58543 -1.24032,-3.78719 0.65349,-0.51928 9.33774,-3.88328 13.54845,-5.24824 19.51476,-6.325965 37.62843,-6.659685 48.8166,-0.89937 6.4614,3.32671 10.28535,8.84495 12.2772,17.71701 0.64593,2.87708 0.66087,3.47697 0.85806,34.4281 0.19275,30.25547 0.22494,31.60745 0.81462,34.21944 0.75057,3.32467 2.03649,6.45263 3.70656,9.01593 0.69249,1.06288 1.17933,2.01227 1.08183,2.10976 -0.0975,0.0975 -1.7697,-0.0582 -3.71604,-0.34595 -4.58691,-0.67814 -10.33944,-0.64615 -14.70819,0.0818 -1.85313,0.30878 -3.52887,0.46283 -3.72384,0.34233 -0.25428,-0.15716 -0.4212,-3.20418 -0.59058,-10.78114 -0.12987,-5.80913 -0.29709,-10.62304 -0.37164,-10.69758 -0.0746,-0.0745 -0.90756,1.35037 -1.85115,3.16647 -5.2728,10.14834 -14.88192,16.85969 -26.24343,18.32937 -2.06223,0.26677 -7.32759,0.36192 -8.4,0.15181 z m 16.05,-14.85247 c 5.82129,-1.79895 10.55499,-5.72155 14.25576,-11.81316 3.22377,-5.30644 4.60341,-11.0789 5.25732,-21.99669 l 0.20184,-3.37008 -0.76635,-0.29137 c -1.35861,-0.51654 -9.81387,-1.00417 -14.29857,-0.82461 -17.48091,0.69987 -26.18208,7.51341 -26.88957,21.05615 -0.30378,5.81528 1.07859,10.02839 4.43847,13.52738 2.10156,2.18855 4.41261,3.483 7.4511,4.17349 2.6928,0.61193 7.58268,0.39407 10.35,-0.46111 z m 63.84198,14.51724 c -0.0809,-0.21084 0.12867,-1.97491 0.46569,-3.92017 1.3431,-7.75203 1.39233,-9.21357 1.39233,-41.33684 0,-27.93495 -0.0478,-30.96424 -0.54927,-34.78218 -0.99087,-7.54472 -2.80782,-12.9299 -5.40558,-16.02132 -0.60243,-0.71692 -1.03275,-1.40476 -0.95625,-1.52853 0.0765,-0.12377 1.59528,-0.31105 3.37509,-0.41618 5.1486,-0.30411 10.48863,-1.391696 17.232,-3.509582 2.08779,-0.65571 3.85125,-1.192203 3.91878,-1.192203 0.0675,0 0.0631,4.927495 -0.01,10.949995 -0.0885,7.29982 -0.0311,10.95 0.17202,10.95 0.16758,0 0.99822,-1.18125 1.84587,-2.625 7.34244,-12.50608 16.25355,-17.647174 31.67724,-18.275614 10.50306,-0.427947 18.17859,1.749897 22.93674,6.508044 3.54552,3.54552 5.33493,8.13993 6.48228,16.6436 0.45918,3.40328 0.55203,7.78927 0.73023,34.49897 0.21882,32.79398 0.29958,34.55976 1.85241,40.50001 0.88863,3.39935 0.88161,3.91901 -0.0517,3.82219 -0.4125,-0.0428 -2.50416,-0.27904 -4.64817,-0.525 -4.97859,-0.57114 -6.72441,-0.55284 -12.60183,0.13211 -2.64,0.30766 -4.89666,0.46978 -5.01477,0.36026 -0.11814,-0.10951 -0.0225,-1.0236 0.21264,-2.03131 0.73074,-3.13237 1.61487,-9.9456 1.9404,-14.95313 0.41214,-6.33932 0.41313,-52.29069 0,-55.663 -1.05828,-8.66391 -4.28232,-13.03294 -10.9395,-14.82466 -5.72532,-1.54091 -14.91846,-0.60465 -20.1963,2.05687 -6.94032,3.49987 -10.69956,8.88836 -12.65001,18.13239 -1.3842,6.5605 -1.55955,9.47009 -1.71609,28.47665 -0.18303,22.22248 0.20964,29.32656 2.00931,36.35168 0.34413,1.3433 0.46149,2.31705 0.2919,2.42186 -0.15597,0.0964 -1.46604,-0.0201 -2.9112,-0.25883 -3.45606,-0.57099 -12.54561,-0.56518 -16.08306,0.0103 -2.14044,0.3482 -2.68401,0.35763 -2.80257,0.0487 z m -477.15447,-0.2695 c -0.10119,-0.10117 0.12456,-0.88224 0.50166,-1.73572 1.88322,-4.2624 3.17409,-12.94326 4.08963,-27.50178 0.4878,-7.75662 0.71475,-60.52978 0.29364,-68.27752 -0.59421,-10.932724 -1.78356,-19.70716 -3.63213,-26.796256 -0.49101,-1.883073 -0.82353,-3.493023 -0.73887,-3.577662 0.0846,-0.08464 1.94145,0.09478 4.12623,0.398709 6.38982,0.8889 18.90918,0.956364 30.22233,0.162867 19.94535,-1.39896 29.59809,-1.062855 40.05,1.394529 22.70586,5.338452 34.26303,19.683042 37.54104,46.595323 0.66165,5.43209 0.75399,19.46483 0.16089,24.45 -1.20033,10.08928 -3.09306,16.84669 -6.80631,24.30001 -2.53416,5.08656 -5.22963,8.82361 -9.30081,12.8948 -4.17117,4.17117 -7.79289,6.74565 -13.49481,9.59278 -8.31144,4.15011 -16.5597,6.37205 -28.65,7.71781 -4.20108,0.46761 -20.00373,0.47866 -31.00518,0.0217 -7.14798,-0.29693 -12.82335,-0.19526 -20.7591,0.37186 -1.32786,0.0949 -2.49705,0.0898 -2.59821,-0.0114 z M 424.2,185.24736 c 6.88836,-1.05023 11.68563,-2.50253 16.63299,-5.0354 12.16506,-6.22806 18.85815,-17.28868 21.36822,-35.31197 0.81054,-5.82009 0.73068,-19.40825 -0.14724,-25.05 -1.35189,-8.68752 -3.6306,-15.1509 -7.30068,-20.707846 C 448.97739,90.3967 440.39811,85.189591 428.25,83.056246 c -5.57082,-0.9783 -16.03269,-0.934833 -25.73349,0.10692 -3.75843,0.403611 -6.95985,0.860166 -7.11426,1.014567 -0.63213,0.632154 -0.96828,16.497557 -1.11321,52.542617 -0.11151,27.73806 -0.0602,38.41341 0.19197,39.90001 0.96918,5.7149 4.07379,8.28066 10.97418,9.06941 3.49146,0.3991 15.00825,0.12727 18.74481,-0.44241 z m 278.00412,12.84021 c -0.0866,-0.14013 0.0297,-1.1284 0.25857,-2.19617 0.67854,-3.16651 1.31298,-8.24114 1.63044,-13.0414 0.39528,-5.97706 0.39324,-56.68472 -0.003,-62.10001 -0.65571,-8.97247 -2.27238,-15.27088 -4.98294,-19.41287 -0.29259,-0.44708 -0.43782,-0.90701 -0.32277,-1.02207 0.11505,-0.11505 1.63467,-0.320432 3.37692,-0.456407 5.90112,-0.460557 11.42217,-1.54665 17.61381,-3.46497 1.93914,-0.600786 3.60816,-1.009842 3.70899,-0.909018 0.10083,0.100824 -0.0368,1.776771 -0.30597,3.724329 -1.10292,7.981886 -1.15161,9.565206 -1.29003,41.941006 -0.16278,38.07805 -0.0261,41.30015 2.20857,52.05001 0.42876,2.0625 0.79602,4.02 0.81615,4.35 0.0416,0.68179 0.61002,0.66661 -6.7251,0.17965 -4.32267,-0.28696 -11.47626,-0.0732 -14.73249,0.44016 -0.6018,0.0949 -1.16505,0.0579 -1.25166,-0.0822 z M 708.9858,87.182734 c -3.12006,-1.019439 -5.82972,-3.426789 -7.23768,-6.430194 -0.67893,-1.448283 -0.79812,-2.105772 -0.79812,-4.402545 0,-2.326746 0.11205,-2.928099 0.81063,-4.35 2.73651,-5.570157 9.12489,-8.044524 14.46159,-5.601306 2.01684,0.923334 4.59759,3.412122 5.51757,5.320908 2.70318,5.608647 0.22482,12.252747 -5.55795,14.900196 -2.04954,0.938313 -5.27493,1.190631 -7.19604,0.562941 z"
       id="path4138-6"
       inkscape:connector-curvature="0" />
  </g>
  <g
     inkscape:groupmode="layer"
     id="layer6"
     inkscape:label="4"
     style="display:inline"
     sodipodi:insensitive="true">
    <path
       style="fill:#99979c;fill-opacity:1"
       d="m 550.2,193.02732 c -4.50003,-0.514 -6.80553,-0.85802 -9.07047,-1.35348 -9.18924,-2.01018 -16.81905,-5.9263 -22.93179,-11.77014 -7.62624,-7.29072 -11.81793,-15.78284 -13.7979,-27.9537 -0.74187,-4.56021 -0.74901,-16.50697 -0.0129,-21.45 1.78926,-12.01401 5.8674,-20.94671 12.66765,-27.74694 7.83699,-7.836954 18.72648,-11.853063 32.13903,-11.853063 21.9531,0 35.27871,11.265163 38.85837,32.850003 0.53232,3.20983 0.52896,17.99897 -0.004,18.975 l -0.36882,0.675 -32.07174,0 c -19.00104,0 -32.14065,0.11154 -32.24088,0.27368 -0.093,0.15052 0.0387,1.87177 0.29271,3.825 2.64789,20.36094 12.66474,31.42072 30.23196,33.37958 5.79891,0.64661 12.5511,0.18799 17.53944,-1.19132 4.07748,-1.12744 8.72628,-3.57526 12.30114,-6.47715 0.53985,-0.43821 1.05072,-0.72756 1.13529,-0.643 0.0845,0.0846 -0.23913,1.55538 -0.71928,3.26848 -0.85119,3.0369 -1.90782,8.57439 -2.29629,12.03432 l -0.19305,1.71959 -1.53813,0.45677 c -2.5191,0.74809 -8.22303,1.88335 -12.07005,2.40231 -3.38526,0.45666 -15.48504,0.84918 -17.85,0.57906 z M 569.49558,129 c -0.0954,-6.57369 -1.30764,-12.37576 -3.54135,-16.95 -3.42633,-7.0165 -8.63247,-10.37713 -16.80423,-10.84738 -13.0713,-0.75221 -21.65709,6.97645 -24.71469,22.24738 -0.70461,3.51928 -1.31766,8.77405 -1.07028,9.17432 0.10488,0.16968 9.20655,0.24922 23.17881,0.20254 L 569.55,132.75 569.4956,129 Z M 631.95,193.02807 c -0.495,-0.0686 -2.385,-0.27373 -4.2,-0.45584 -6.91836,-0.69418 -21.62121,-3.7875 -21.93903,-4.61574 -0.0806,-0.21018 0.0597,-1.78262 0.31182,-3.49431 1.78377,-12.1093 2.04243,-20.68098 1.9044,-63.11218 -0.10344,-31.800843 -0.1794,-36.704445 -0.61278,-39.563112 -1.13076,-7.458918 -2.83935,-12.120183 -5.58363,-15.232926 -0.67692,-0.76782 -1.23078,-1.462626 -1.23078,-1.544013 0,-0.08139 1.18125,-0.310146 2.625,-0.50835 6.96753,-0.956532 14.36739,-3.003942 20.74029,-5.738457 1.88499,-0.808827 3.49893,-1.398921 3.58653,-1.311321 0.0876,0.0876 -0.0746,2.620527 -0.36057,5.628726 -1.02027,10.73448 -1.1235,13.187538 -1.29396,30.74445 -0.12021,12.381443 -0.0765,17.775003 0.14406,17.775003 0.17415,0 0.87312,-1.00813 1.55328,-2.24029 4.98369,-9.02821 12.25893,-15.113042 20.60991,-17.237585 9.07857,-2.309658 20.10069,-0.909375 27.52125,3.49638 2.77941,1.650213 6.97356,5.627135 8.78658,8.331495 5.02083,7.48927 7.58892,17.64781 7.58403,30 -0.007,17.30605 -4.51395,31.23059 -13.62126,42.08217 -7.43352,8.85721 -17.76282,14.40925 -30.62514,16.4611 -2.57994,0.41157 -14.01417,0.79616 -15.9,0.5348 z m 14.4,-11.23626 c 7.89324,-0.88659 13.8213,-3.68163 18.64197,-8.78958 6.06537,-6.4268 9.11466,-15.81774 9.612,-29.60223 0.62481,-17.31647 -4.69107,-30.17541 -14.45397,-34.96388 -3.34284,-1.63958 -5.42925,-2.06726 -10.05,-2.06008 -7.09275,0.011 -11.00052,1.4958 -15.3,5.81328 -4.52841,4.54738 -6.90591,10.34632 -8.42967,20.56068 -0.24279,1.62738 -0.39876,9.61903 -0.48456,24.82467 l -0.12654,22.42468 0.72678,0.27632 c 0.84891,0.32276 7.54671,1.4585 9.51399,1.61329 2.98254,0.23467 7.79829,0.18946 10.35,-0.0971 z m 126.75,11.25042 c -0.2475,-0.0485 -1.45488,-0.25226 -2.68308,-0.45282 -14.43525,-2.35725 -23.85687,-15.4193 -23.01933,-31.9138 0.6846,-13.48262 8.02326,-22.4016 22.36872,-27.18561 7.66902,-2.55752 15.4647,-3.58822 29.13369,-3.85191 l 9.75,-0.18809 0.0919,-3.3 c 0.45858,-16.46931 -6.53508,-24.73339 -20.35752,-24.05551 -6.18327,0.30323 -11.87286,1.8043 -17.83437,4.70519 -4.32207,2.10313 -7.40298,4.26118 -10.62168,7.44007 -2.72385,2.69015 -3.30717,2.97777 -3.32373,1.63884 -0.0153,-1.23232 -2.36751,-7.65376 -4.31466,-11.77859 -0.8211,-1.73944 -0.98019,-2.32756 -0.70101,-2.5918 0.56139,-0.53139 8.89872,-3.792518 13.56108,-5.304386 11.40759,-3.699141 21.41088,-5.280345 31.05,-4.908024 10.35372,0.399927 17.56896,2.753883 22.54488,7.355238 3.82707,3.538972 6.10665,7.914322 7.52799,14.448972 0.59631,2.74158 0.62769,4.04835 0.82479,34.35 0.19674,30.2469 0.22932,31.60818 0.81882,34.21943 0.75057,3.32467 2.03649,6.45263 3.70656,9.01593 0.69249,1.06288 1.17237,2.01924 1.06638,2.12523 -0.10599,0.10599 -1.30572,0.0201 -2.66607,-0.19079 -6.12096,-0.94908 -10.98141,-0.92218 -16.81989,0.0931 -1.24743,0.21692 -2.43105,0.29366 -2.63028,0.17053 -0.26358,-0.16291 -0.43362,-3.10663 -0.62439,-10.81033 -0.14418,-5.82255 -0.31335,-10.63767 -0.37593,-10.70025 -0.0626,-0.0626 -0.88584,1.3721 -1.82943,3.1882 -5.25942,10.12261 -14.61933,16.69717 -26.09343,18.3285 -1.90416,0.27072 -7.44273,0.36963 -8.55,0.15268 z m 16.05,-14.85247 c 6.46389,-1.99752 11.81937,-6.81357 15.30909,-13.76705 1.56459,-3.11758 2.48163,-5.97687 3.13428,-9.77271 0.74223,-4.31677 1.38279,-13.29385 0.97749,-13.69914 -1.06353,-1.06352 -16.6524,-1.37269 -21.80388,-0.43244 -12.95799,2.36509 -19.25337,8.888 -19.86363,20.58158 -0.47052,9.0157 4.12077,15.7896 11.89665,17.55203 2.69397,0.61059 7.5852,0.39213 10.35,-0.46227 z m 63.85206,14.54351 c -0.0796,-0.20753 0.13212,-2.04366 0.47055,-4.0803 1.34016,-8.0649 1.37739,-9.1744 1.37739,-41.05297 0,-27.46357 -0.0527,-30.87014 -0.537,-34.7338 -0.95895,-7.65012 -2.88417,-13.372232 -5.45733,-16.220417 -0.60777,-0.672744 -1.01847,-1.36326 -0.91266,-1.534479 0.10581,-0.171219 1.02819,-0.313779 2.04969,-0.316803 4.21821,-0.01248 12.35016,-1.594434 18.552,-3.609021 2.00718,-0.652017 3.73797,-1.185483 3.84615,-1.185483 0.10818,0 0.13698,4.9275 0.064,10.950003 -0.0918,7.57284 -0.0349,10.95 0.1842,10.95 0.1743,0 0.75459,-0.77625 1.28958,-1.725 3.09012,-5.48015 7.55757,-10.704963 11.33571,-13.257471 5.832,-3.940095 13.87101,-6.019311 23.26275,-6.016686 9.10854,0.0024 16.18095,2.257437 20.49927,6.535764 3.75171,3.716963 5.43441,8.174633 6.70536,17.763393 0.21732,1.63973 0.41937,13.5268 0.56595,33.3 0.2532,34.15468 0.33174,35.60252 2.29977,42.3846 0.30282,1.04352 0.39363,1.83624 0.22794,1.98973 -0.1521,0.14091 -1.55136,0.0737 -3.1254,-0.15024 -5.36136,-0.76259 -9.35769,-0.80987 -14.7,-0.1739 -2.7225,0.3241 -5.05974,0.4864 -5.19387,0.36067 -0.13413,-0.12573 -0.0394,-1.02336 0.21045,-1.99473 0.71652,-2.78548 1.63152,-9.72836 1.97169,-14.96101 0.41238,-6.34292 0.41313,-52.29146 0,-55.66299 -0.40104,-3.28027 -1.31871,-6.64769 -2.30583,-8.46134 -0.9837,-1.80739 -3.42969,-4.14011 -5.3745,-5.12563 -5.78562,-2.93179 -16.77006,-2.54877 -23.45532,0.81787 -7.21842,3.63514 -11.16387,9.63952 -12.92964,19.67697 -1.14987,6.53638 -1.2945,9.24648 -1.4409,27 -0.18006,21.83685 0.23682,29.3481 2.0139,36.28505 0.34413,1.3433 0.46149,2.31705 0.2919,2.42186 -0.15597,0.0964 -1.46604,-0.0169 -2.9112,-0.25178 -3.59244,-0.58387 -12.34188,-0.58408 -15.92919,-3e-4 -2.2263,0.36225 -2.83128,0.37838 -2.94636,0.0785 z m -477.17529,-0.30649 c -0.0953,-0.0953 0.1353,-0.87152 0.5124,-1.725 2.23578,-5.06038 3.69999,-16.91823 4.35909,-35.30178 0.3891,-10.85259 0.38619,-54.25404 -0.004,-61.091724 -0.58953,-10.328853 -1.84554,-19.468002 -3.5949,-26.157591 -0.49593,-1.896525 -0.83418,-3.515769 -0.75162,-3.598314 0.0825,-0.08255 2.07435,0.10815 4.42623,0.423771 5.79255,0.777354 22.92384,0.792372 32.02614,0.02808 15.97146,-1.341084 27.86409,-0.870876 37.95,1.500453 22.63563,5.321943 34.15563,19.572399 37.54614,46.445335 0.7362,5.83506 0.73836,20.53312 0.004,26.05007 -1.20306,9.03623 -3.18879,15.9279 -6.4974,22.54993 -2.70222,5.40837 -5.34303,9.09324 -9.46002,13.2 -4.21431,4.20382 -7.84287,6.78371 -13.49256,9.59312 -8.33808,4.14625 -16.82355,6.43286 -28.65,7.72042 -4.14969,0.45179 -20.58912,0.46072 -31.269,0.017 -6.78054,-0.28171 -11.10918,-0.18489 -22.75599,0.50904 -0.0963,0.006 -0.25296,-0.0675 -0.34824,-0.16279 z M 429,179.54619 c 16.16679,-2.43104 26.56479,-9.24386 32.68425,-21.41489 2.53086,-5.0336 4.58187,-12.63676 5.47104,-20.2813 0.58503,-5.02952 0.48708,-17.99406 -0.17223,-22.8 -2.27979,-16.617939 -9.29799,-27.817233 -21.14319,-33.739155 -2.99535,-1.497495 -8.52723,-3.20637 -12.78987,-3.950955 -5.51121,-0.962688 -15.28959,-0.959103 -24.6861,0.009 -3.67734,0.378888 -7.05234,0.78651 -7.5,0.905826 -0.78729,0.209844 -0.82047,0.304533 -1.01487,2.896086 -0.51303,6.839586 -0.84999,29.931188 -0.84456,57.879148 0.006,32.12847 0.0398,33.02503 1.33005,35.52009 1.65786,3.20593 4.60317,4.80378 10.00503,5.42776 3.35832,0.38793 14.94153,0.10757 18.66045,-0.45165 z m 277.9791,12.80089 c -0.10038,-0.16239 0.0246,-1.18824 0.27774,-2.27967 1.74,-7.50276 2.00886,-14.38246 1.86471,-47.71741 -0.10734,-24.8234 -0.18897,-28.94506 -0.63273,-31.95 -0.96408,-6.52863 -2.30883,-11.094927 -4.09833,-13.9167 C 703.90071,95.711022 703.5,94.954965 703.5,94.803171 c 0,-0.325308 1.07436,-0.509919 4.35,-0.747483 4.89654,-0.355116 10.94397,-1.570707 16.72566,-3.362013 1.93914,-0.600786 3.60144,-1.016574 3.69405,-0.923973 0.0926,0.0926 -0.10875,2.376045 -0.44748,5.074329 -0.3387,2.698281 -0.75096,7.200969 -0.91611,10.005969 -0.40089,6.80808 -0.39534,62.65999 0.007,68.1 0.3861,5.22381 1.2852,11.58529 2.24226,15.86549 0.40161,1.79601 0.65403,3.38874 0.56091,3.53939 -0.0931,0.15065 -0.73104,0.19705 -1.41768,0.10311 -5.11431,-0.69967 -15.6255,-0.6945 -20.04261,0.01 -0.6018,0.096 -1.17633,0.0416 -1.27668,-0.12077 z m 6.8067,-110.882308 c -7.16622,-2.239623 -10.38918,-10.608213 -6.38781,-16.586388 4.56693,-6.823113 13.93671,-6.805272 18.46395,0.03516 2.71428,4.101126 2.31348,9.435654 -0.98454,13.103826 -0.76467,0.850515 -1.88421,1.858167 -2.48784,2.239221 -2.41398,1.523871 -5.98779,2.025729 -8.60376,1.208184 z"
       id="path4138-7"
       inkscape:connector-curvature="0" />
  </g>
  <g
     inkscape:groupmode="layer"
     id="layer7"
     inkscape:label="5"
     style="display:inline;opacity:0.6">
    <path
       style="fill:#1e1118;fill-opacity:1"
       d="m 394.99044,271.15961 c -10.62144,-1.364 -18.68232,-7.14331 -22.18896,-15.90858 -3.7203,-9.29925 -2.88411,-22.55364 1.94214,-30.78467 0.5535,-0.944 2.15388,-2.86386 3.55638,-4.26636 3.50847,-3.50847 6.67134,-5.27588 11.77734,-6.58116 6.28194,-1.60589 14.89608,-1.59434 21.51096,0.0289 3.23928,0.79487 3.99327,1.13907 3.79968,1.73458 -0.0836,0.25725 -0.61185,1.76468 -1.17381,3.34983 -0.56196,1.58515 -1.10376,3.19575 -1.20402,3.57909 -0.17688,0.67635 -0.22488,0.65735 -1.6212,-0.64166 -2.91138,-2.70845 -5.65104,-3.82683 -9.98895,-4.07764 -6.79656,-0.39297 -12.76464,2.12644 -16.40013,6.92326 -2.93625,3.8742 -4.4742,8.60198 -4.79325,14.73485 -0.29949,5.75641 0.51417,10.43172 2.55828,14.7 3.54777,7.4081 9.35883,11.25471 17.76483,11.75937 4.74936,0.28514 9.90756,-0.79532 13.34577,-2.79545 0.67404,-0.3921 1.29417,-0.64423 1.37814,-0.56029 0.16074,0.16075 -1.12584,6.13895 -1.55742,7.2367 -0.19692,0.50084 -0.66507,0.7122 -2.14899,0.9702 -5.24187,0.91139 -12.17217,1.16216 -16.55679,0.59908 z M 453.45,271.0784 c -4.81353,-0.93433 -7.87092,-2.54026 -10.90587,-5.7284 -2.28987,-2.40548 -3.89109,-5.3587 -4.88919,-9.01741 -0.9528,-3.4927 -0.97224,-11.73972 -0.0365,-15.46164 1.63566,-6.50551 5.0511,-11.10242 10.10091,-13.59499 3.32031,-1.6389 5.65449,-2.09723 10.6806,-2.09723 3.13245,0 4.93779,0.14632 6.45,0.52278 7.16649,1.78407 12.39123,7.18067 14.3187,14.78967 0.94446,3.72838 0.93093,11.65177 -0.0261,15.25882 -2.08602,7.86277 -6.9666,13.09335 -13.99266,14.99611 -2.47824,0.67114 -9.00003,0.85637 -11.7,0.33229 z m 8.01024,-5.01571 c 4.5915,-0.97422 7.44696,-4.08781 9.00255,-9.81646 0.87678,-3.22873 0.95151,-11.95226 0.13275,-15.49623 -1.55541,-6.73256 -4.96287,-10.08036 -10.75419,-10.56588 -2.23134,-0.18707 -5.11833,0.27096 -7.05651,1.11953 -3.04989,1.33529 -5.50494,4.69831 -6.75504,9.25329 -0.84834,3.09106 -0.92559,11.94634 -0.13251,15.19306 0.63237,2.58886 1.93281,5.3101 3.30201,6.90955 2.53434,2.96056 7.65207,4.38103 12.26094,3.40314 z m 44.73702,5.05198 c -0.0896,-0.14504 0.0207,-1.36643 0.24489,-2.71419 0.3066,-1.8421 0.40749,-6.24903 0.40644,-17.75048 -0.003,-16.95572 -0.0823,-17.84182 -1.97547,-21.69591 -0.51222,-1.04275 -0.86655,-1.96067 -0.78738,-2.03982 0.0791,-0.0792 1.2735,-0.26225 2.6541,-0.40688 2.92695,-0.30663 4.98192,-0.7413 6.49665,-1.37419 1.82949,-0.76441 1.86207,-0.67872 1.65552,4.35303 -0.10803,2.63143 -0.072,4.51377 0.0863,4.51377 0.1494,-1e-5 0.92712,-0.8856 1.72824,-1.96799 4.27032,-5.76964 11.49423,-8.15642 17.66742,-5.83731 2.36046,0.88676 4.77171,3.13023 5.65512,5.26156 0.3747,0.90406 0.76899,1.64374 0.87621,1.64374 0.10722,0 0.71784,-0.75925 1.35696,-1.68722 2.63145,-3.82076 7.37847,-6.09335 12.75759,-6.10757 5.42505,-0.0143 9.28386,1.84237 10.92093,5.25474 1.22952,2.56285 1.3926,4.53086 1.65249,19.94005 0.19275,11.42855 0.36279,15.50101 0.738,17.67556 0.26817,1.55405 0.38208,2.92378 0.25314,3.04383 -0.12894,0.12006 -1.11195,0.0878 -2.18445,-0.0716 -1.0725,-0.15947 -3.35214,-0.20269 -5.06586,-0.096 -2.75841,0.17166 -3.09507,0.13982 -2.9349,-0.27759 0.0995,-0.25932 0.42165,-1.65333 0.71583,-3.0978 0.46587,-2.28728 0.53493,-4.34967 0.53493,-15.97631 0,-11.97914 -0.0551,-13.52835 -0.53682,-15.08681 -1.08978,-3.52586 -4.07661,-5.26138 -8.48154,-4.92824 -4.41924,0.33423 -7.3362,2.57893 -8.60847,6.62455 -0.65343,2.0777 -0.67317,2.51458 -0.67317,14.8905 0,11.20601 0.0659,13.04941 0.54426,15.22251 0.29931,1.35988 0.47346,2.58702 0.38697,2.72698 -0.0865,0.13996 -1.00644,0.13159 -2.04426,-0.0186 -1.03782,-0.15019 -3.27072,-0.18706 -4.96197,-0.0819 -1.69125,0.10514 -3.075,0.12554 -3.075,0.0453 0,-0.0802 0.23625,-1.00048 0.525,-2.04506 0.46734,-1.69068 0.525,-3.52989 0.525,-16.74923 0,-16.21554 -0.032,-16.56132 -1.70715,-18.46926 -1.49415,-1.70175 -2.43735,-2.05714 -5.49285,-2.06967 -2.35824,-0.01 -2.91495,0.0945 -4.39815,0.82286 -2.91663,1.4323 -4.69875,3.95425 -6.02289,8.52327 -0.65325,2.25413 -0.67857,2.77425 -0.66834,13.7428 0.009,9.58458 0.0921,11.7802 0.52251,13.78749 0.28152,1.31313 0.41175,2.47785 0.28938,2.58827 -0.12237,0.11042 -1.20201,0.0632 -2.39919,-0.10495 -1.41531,-0.19878 -3.02253,-0.2072 -4.59489,-0.0241 -1.38543,0.16136 -2.48778,0.16902 -2.58117,0.0179 z m 96.8781,-0.0696 c -4.68492,-1.01772 -7.55919,-4.01408 -8.47305,-8.83296 -0.17313,-0.91289 -0.30231,-7.0077 -0.30231,-14.26375 0,-13.49485 -0.237,-16.5051 -1.50636,-19.13235 -0.32649,-0.67578 -0.59364,-1.38347 -0.59364,-1.57265 0,-0.21467 1.17054,-0.47175 3.1143,-0.68399 1.71285,-0.18703 4.01049,-0.63425 5.10585,-0.99384 1.09536,-0.35958 2.06568,-0.57969 2.15625,-0.48912 0.0906,0.0906 0.012,1.49417 -0.17433,3.11913 -0.22002,1.91747 -0.30621,7.90348 -0.24555,17.05447 0.085,12.82041 0.14256,14.2089 0.63438,15.3 0.68628,1.52244 1.83063,2.72993 3.3591,3.54437 1.77003,0.94317 6.28485,0.92087 8.4,-0.0415 2.90391,-1.32124 4.86447,-3.98465 6.00138,-8.15287 0.43242,-1.5854 0.55791,-3.57171 0.67116,-10.62354 0.15627,-9.72905 -0.1359,-13.32098 -1.32768,-16.32247 -0.41406,-1.0428 -0.70605,-1.93639 -0.64884,-1.98575 0.0572,-0.0494 1.45398,-0.25355 3.10398,-0.45374 1.65,-0.2002 3.9963,-0.6953 5.21403,-1.10023 1.2177,-0.40492 2.27511,-0.67512 2.34981,-0.60044 0.0747,0.0747 -0.0105,1.58807 -0.18903,3.36308 -0.4278,4.25053 -0.42756,32.40103 2.7e-4,35.97309 0.17787,1.485 0.64575,3.63798 1.03977,4.7844 0.39399,1.14643 0.68082,2.11992 0.63744,2.16332 -0.0434,0.0434 -1.04784,-0.0246 -2.23206,-0.15115 -1.18425,-0.12654 -2.93325,-0.13267 -3.88671,-0.0136 -0.95343,0.11904 -2.17227,0.22782 -2.70852,0.24175 l -0.975,0.0253 -0.005,-3.975 c -0.003,-2.18625 -0.12,-4.15709 -0.26103,-4.37964 -0.18573,-0.2931 -0.52704,0.0683 -1.23813,1.31122 -1.23261,2.15435 -3.61413,4.54695 -5.5845,5.61047 -3.03681,1.63915 -7.48548,2.13629 -11.43639,1.27801 z m 84.38832,0.17708 c -0.10836,-0.17532 -0.0207,-1.43327 0.19467,-2.79545 0.28278,-1.78823 0.39165,-6.5213 0.39165,-17.0267 l 0,-14.55 -0.79839,-1.70314 c -1.35336,-2.88696 -4.01433,-4.08518 -8.33274,-3.75217 -6.05232,0.46672 -9.37263,3.54676 -10.7319,9.95531 -0.42531,2.00509 -0.51135,4.25113 -0.52302,13.65 -0.0129,10.45438 0.17922,13.79988 0.90081,15.68031 0.11727,0.30559 -0.89382,0.38636 -4.83669,0.38636 l -4.98495,0 0.18156,-1.05834 c 0.66864,-3.89742 0.81483,-8.40985 0.69369,-21.41133 -0.14544,-15.60813 -0.26568,-16.78761 -2.03001,-19.91384 -0.51024,-0.90409 -0.88512,-1.68031 -0.83304,-1.72493 0.0521,-0.0446 1.24218,-0.23984 2.64468,-0.43383 1.4025,-0.194 3.74685,-0.69074 5.20968,-1.10388 1.46283,-0.41313 2.73099,-0.67985 2.81814,-0.5927 0.0871,0.0872 0.13035,2.18654 0.096,4.66532 -0.0381,2.75235 0.0508,4.50686 0.22836,4.50686 0.15993,0 0.63921,-0.59453 1.06503,-1.32118 2.76234,-4.71357 7.13346,-7.18967 13.38276,-7.58091 3.73422,-0.23378 6.57174,0.25388 8.86611,1.52378 2.30592,1.27627 3.54642,2.9943 4.38225,6.06914 0.60186,2.21416 0.6546,3.33652 0.85821,18.25917 0.18201,13.33806 0.29724,16.21141 0.71517,17.83266 0.27402,1.06297 0.43761,2.09056 0.36354,2.28356 -0.099,0.25809 -0.59751,0.27544 -1.88496,0.0656 -1.64016,-0.26735 -6.50313,-0.10376 -7.4244,0.24977 -0.22839,0.0876 -0.50388,0.0159 -0.61224,-0.15943 z m 86.01513,-0.17637 c -4.30635,-0.93559 -7.91625,-3.84888 -9.98424,-8.05752 -2.06187,-4.19618 -2.4879,-6.38493 -2.48919,-12.78825 0,-5.00596 0.074,-5.83143 0.76575,-8.42095 2.20038,-8.23744 7.1115,-13.52137 14.53608,-15.63949 1.9644,-0.56042 3.06957,-0.66671 6.84279,-0.65812 2.475,0.006 5.06019,0.15221 5.74485,0.32574 1.9485,0.49383 2.02074,0.34529 1.77471,-3.64964 -0.23187,-3.76538 -0.7773,-6.10253 -1.73997,-7.45565 -0.33603,-0.47235 -0.48732,-0.95618 -0.34149,-1.09201 0.14406,-0.13413 1.4094,-0.47021 2.8119,-0.74683 1.4025,-0.27662 3.6975,-0.9029 5.1,-1.39173 1.4025,-0.48883 2.80605,-0.97328 3.11901,-1.07655 0.61923,-0.20434 0.61665,-0.12104 -0.17712,5.75523 -0.15603,1.155 -0.35271,12.47842 -0.43707,25.16315 -0.14553,21.88568 -0.0887,24.32494 0.66819,28.6924 l 0.18297,1.05555 -4.30299,-0.006 -4.30299,-0.006 -0.0859,-3.29587 c -0.0472,-1.81272 -0.20088,-3.41086 -0.34143,-3.55142 -0.14073,-0.14074 -0.7566,0.49927 -1.37076,1.42456 -3.23169,4.86877 -9.19398,6.89133 -15.97314,5.4185 z m 11.49576,-7.32423 c 2.9967,-1.32253 4.88826,-4.15986 5.52006,-8.27998 0.19518,-1.27293 0.28836,-6.20121 0.23805,-12.59156 l -0.0827,-10.5 -2.55,-0.88098 c -2.22342,-0.76814 -2.99184,-0.88341 -6,-0.9 -3.27522,-0.0181 -3.55221,0.0294 -5.46744,0.93667 -2.55066,1.20831 -4.41555,3.11151 -5.77239,5.89102 -1.41453,2.89765 -1.94436,5.12066 -2.15778,9.05329 -0.49134,9.05399 2.79159,15.84336 8.55867,17.70003 1.96134,0.63145 5.79429,0.41852 7.71351,-0.42849 z m 50.60064,7.31492 c -5.65128,-1.52176 -9.12333,-5.97548 -9.57834,-12.28646 -0.20811,-2.88677 0.22041,-5.18841 1.4088,-7.56659 2.02839,-4.05913 6.8289,-6.83704 13.64433,-7.89555 1.32,-0.20502 4.695,-0.4549 7.5,-0.55531 l 5.1,-0.18255 -0.0452,-3 c -0.0698,-4.62997 -1.25643,-7.16262 -4.09221,-8.7341 -1.43415,-0.79475 -1.80903,-0.86529 -4.56255,-0.85842 -4.69269,0.0117 -9.08181,1.72377 -12.47847,4.86752 -0.93594,0.86625 -1.82778,1.575 -1.98183,1.575 -0.15408,0 -0.52338,-0.77625 -0.82071,-1.725 -0.29733,-0.94875 -0.79449,-2.22587 -1.10478,-2.83805 -1.01469,-2.00175 -0.89685,-2.16477 2.51079,-3.4734 13.96734,-5.36385 25.85652,-4.21205 29.43081,2.8512 1.4766,2.91798 1.48251,2.98655 1.67112,19.43525 l 0.17886,15.6 0.84477,1.95 c 1.41369,3.26322 1.60074,2.9938 -1.94451,2.80075 -1.70832,-0.093 -3.80754,-0.0385 -4.66494,0.12118 -1.0647,0.19827 -1.65909,0.19009 -1.875,-0.0258 -0.1908,-0.19082 -0.31611,-1.95011 -0.31611,-4.43841 0,-2.26726 -0.11754,-4.19495 -0.26121,-4.28374 -0.1437,-0.0888 -0.75099,0.632 -1.34955,1.60177 -3.51861,5.70059 -10.94814,8.74798 -17.21403,7.06072 z m 11.0376,-7.06749 c 4.32972,-2.30773 6.72966,-7.00847 6.94815,-13.60929 l 0.089,-2.69031 -1.65,-0.25934 c -0.9075,-0.14264 -3.2025,-0.19306 -5.1,-0.11206 -5.96736,0.25475 -9.45618,1.94236 -11.24466,5.43928 -0.81048,1.58467 -0.90534,2.05525 -0.90534,4.49144 0,3.17798 0.71814,5.05883 2.43009,6.36461 2.55198,1.94648 6.2121,2.09225 9.43272,0.37567 z m 55.266,7.0768 c -4.30635,-0.93559 -7.91625,-3.84888 -9.98424,-8.05752 -2.06187,-4.19618 -2.4879,-6.38493 -2.48919,-12.78825 0,-5.00596 0.074,-5.83143 0.76575,-8.42095 2.20038,-8.23744 7.1115,-13.52137 14.53608,-15.63949 1.9644,-0.56042 3.06957,-0.66671 6.84279,-0.65812 2.475,0.006 5.06019,0.15221 5.74485,0.32574 1.9485,0.49383 2.02074,0.34529 1.77471,-3.64964 -0.23187,-3.76538 -0.7773,-6.10253 -1.73997,-7.45565 -0.33603,-0.47235 -0.48732,-0.95618 -0.34149,-1.09201 0.14406,-0.13413 1.4094,-0.47021 2.8119,-0.74683 1.4025,-0.27662 3.6975,-0.9029 5.1,-1.39173 1.4025,-0.48883 2.80605,-0.97328 3.11901,-1.07655 0.61923,-0.20434 0.61665,-0.12104 -0.17712,5.75523 -0.15603,1.155 -0.35271,12.47842 -0.43707,25.16315 -0.14553,21.88568 -0.0887,24.32494 0.66819,28.6924 l 0.18297,1.05555 -4.30299,-0.006 -4.30299,-0.006 -0.0859,-3.29587 c -0.0472,-1.81272 -0.20088,-3.41086 -0.34143,-3.55142 -0.14073,-0.14074 -0.7566,0.49927 -1.37076,1.42456 -3.23169,4.86877 -9.19398,6.89133 -15.97314,5.4185 z m 11.49576,-7.32423 c 2.9967,-1.32253 4.88826,-4.15986 5.52006,-8.27998 0.19518,-1.27293 0.28836,-6.20121 0.23805,-12.59156 l -0.0827,-10.5 -2.55,-0.88098 c -2.22342,-0.76814 -2.99184,-0.88341 -6,-0.9 -3.27522,-0.0181 -3.55221,0.0294 -5.46744,0.93667 -2.55066,1.20831 -4.41555,3.11151 -5.77239,5.89102 -1.41453,2.89765 -1.94436,5.12066 -2.15778,9.05329 -0.49134,9.05399 2.79159,15.84336 8.55867,17.70003 1.96134,0.63145 5.79429,0.41852 7.71351,-0.42849 z M 725.25384,270.9 c -0.0487,-0.0825 0.13008,-1.095 0.39729,-2.25 0.41541,-1.79545 0.48681,-4.44938 0.49236,-18.3 0.006,-14.52108 -0.0491,-16.43667 -0.52977,-18.48367 -0.29493,-1.25602 -0.80118,-2.80331 -1.125,-3.43843 -0.32379,-0.63512 -0.58872,-1.3092 -0.58872,-1.49795 0,-0.20391 0.79587,-0.41751 1.96101,-0.52631 1.07856,-0.10072 3.44973,-0.53909 5.26923,-0.97415 1.81953,-0.43506 3.38163,-0.71762 3.47136,-0.6279 0.0897,0.0897 0,2.02731 -0.19833,4.30577 -0.56163,6.43732 -0.25071,35.09848 0.41739,38.47541 0.27561,1.39302 0.46245,2.72161 0.4152,2.95242 -0.0688,0.33654 -1.05711,0.42908 -4.98966,0.46723 -2.69712,0.0262 -4.94367,-0.0199 -4.99236,-0.10242 z m 2.37285,-50.20891 c -2.21712,-1.0053 -3.5913,-4.02433 -2.85174,-6.26522 0.39264,-1.18967 1.91253,-2.7524 3.11958,-3.20747 2.02497,-0.76344 4.43724,0.0772 5.74527,2.00213 0.89406,1.31575 1.041,3.76626 0.31053,5.17886 -1.10475,2.1363 -4.1958,3.25651 -6.32364,2.2917 z"
       id="path4138-5"
       inkscape:connector-curvature="0" />
  </g>
  <g
     inkscape:groupmode="layer"
     id="layer8"
     inkscape:label="6"
     style="display:inline"
     sodipodi:insensitive="true">
    <path
       style="fill:#99979c;fill-opacity:1"
       d="m 397.42254,267.13292 c -11.72094,-1.8244 -19.89498,-8.85039 -22.53267,-19.36801 -1.74942,-6.97558 -1.31205,-16.23754 1.07577,-22.78175 1.31025,-3.59089 2.86017,-5.97152 5.78121,-8.87977 2.40708,-2.39652 3.15666,-2.93946 5.88093,-4.2597 3.37788,-1.63698 6.4695,-2.53155 10.46436,-3.02786 5.53929,-0.68819 13.23078,-0.15463 18.16944,1.26043 2.79462,0.80074 2.72772,0.5625 1.32672,4.72374 -1.62027,4.81254 -1.24389,4.48359 -3.14352,2.74743 -3.16386,-2.8916 -7.12653,-4.14204 -12.14478,-3.83235 -1.5675,0.0967 -3.66,0.39223 -4.65,0.65666 -9.31944,2.4892 -14.86584,12.24657 -14.14413,24.88277 0.55746,9.76087 5.08578,17.4813 12.09954,20.62889 3.29631,1.4793 5.28756,1.85249 9.84459,1.84504 4.79073,-0.008 7.34313,-0.56205 10.94718,-2.37701 1.13973,-0.57397 2.12943,-0.9441 2.19933,-0.82251 0.13167,0.22916 -1.1688,6.03296 -1.6047,7.16141 -0.19407,0.50241 -0.65604,0.71069 -2.14458,0.96696 -5.87922,1.01214 -12.76947,1.20022 -17.42469,0.47563 z m 59.10354,0.0131 c -7.947,-1.50568 -13.40556,-6.65659 -15.57381,-14.69603 -0.54234,-2.01088 -0.65013,-3.25121 -0.66477,-7.65 -0.015,-4.48013 0.0814,-5.64593 0.65667,-7.95 1.9437,-7.78505 6.88116,-13.07107 14.00583,-14.99462 0.99,-0.26728 3.4875,-0.56052 5.55,-0.65163 3.06912,-0.13559 4.28238,-0.0552 6.68208,0.44279 8.11662,1.68435 13.68612,7.34174 15.55791,15.80346 0.61578,2.78373 0.53595,10.85409 -0.13575,13.72198 -1.93884,8.27821 -6.89229,13.77126 -14.15424,15.6961 -2.56449,0.67975 -9.0102,0.83 -11.92392,0.27795 z m 8.23416,-4.98335 c 6.09618,-1.29347 9.29592,-6.50616 9.73704,-15.86268 0.42045,-8.91748 -1.7139,-15.61553 -5.81436,-18.2468 -2.6049,-1.67155 -6.28761,-2.24564 -9.74316,-1.51883 -4.94583,1.04026 -8.02353,4.28479 -9.5991,10.11939 -0.87114,3.226 -0.94581,11.39188 -0.1362,14.89624 0.6693,2.89702 1.89294,5.57567 3.29346,7.20955 2.51976,2.93961 7.6875,4.37381 12.26232,3.40313 z m 44.73597,5.11352 c -0.21753,-0.21753 -0.24885,-0.64402 -0.0883,-1.20361 0.72357,-2.52289 0.93921,-8.21573 0.80586,-21.27334 -0.1533,-15.01363 -0.26523,-16.0934 -2.0469,-19.74516 -0.50874,-1.04275 -0.85032,-1.97058 -0.75906,-2.06185 0.0913,-0.0913 1.3614,-0.28585 2.82255,-0.43241 1.46112,-0.14656 3.59328,-0.54447 4.73814,-0.88426 3.59274,-1.0663 3.29877,-1.42341 3.16866,3.84943 -0.0641,2.59661 0.004,4.575 0.15726,4.575 0.14859,0 0.873,-0.82785 1.60983,-1.83967 3.21996,-4.4217 7.75068,-6.86033 12.7458,-6.86033 4.97991,0 9.11649,2.38612 10.6812,6.16129 0.37356,0.90129 0.78591,1.63871 0.91629,1.63871 0.13041,0 0.44379,-0.39971 0.69645,-0.88826 0.25263,-0.48853 1.18878,-1.63541 2.08035,-2.54861 3.01107,-3.08411 7.54716,-4.60477 12.765,-4.27929 6.02547,0.37587 9.23817,2.81925 10.39662,7.90709 0.36921,1.62156 0.52092,5.21441 0.71397,16.90907 0.18423,11.16286 0.36402,15.59079 0.72405,17.83354 0.26343,1.64096 0.37707,3.07347 0.25251,3.18337 -0.12453,0.1099 -1.41831,0.066 -2.87502,-0.0976 -1.68786,-0.18951 -3.40212,-0.19539 -4.7259,-0.0162 -1.14249,0.15466 -2.21619,0.19534 -2.38596,0.0904 -0.20643,-0.12757 -0.1623,-0.75287 0.1332,-1.8874 0.92787,-3.56224 1.12803,-7.42434 1.00659,-19.42028 -0.12975,-12.81825 -0.22005,-13.58706 -1.8459,-15.71868 -0.42192,-0.55317 -1.41207,-1.32333 -2.20029,-1.71147 -2.03859,-1.00383 -6.43611,-1.0082 -8.63316,-0.009 -3.06489,1.39447 -4.90743,4.17996 -5.56395,8.41135 -0.22716,1.46407 -0.2988,5.99262 -0.21579,13.64156 0.10407,9.58876 0.21231,11.85568 0.66603,13.94591 0.30759,1.41705 0.42765,2.59697 0.27774,2.72962 -0.1452,0.12851 -1.36866,0.0959 -2.71878,-0.0725 -1.62003,-0.20206 -3.23352,-0.20742 -4.74507,-0.0158 -1.2597,0.15971 -2.34957,0.19456 -2.42196,0.0774 -0.0724,-0.11711 0.10509,-1.13584 0.39441,-2.26384 0.46623,-1.81786 0.52608,-3.72134 0.52668,-16.75091 0,-13.41219 -0.0469,-14.83634 -0.54219,-16.25625 -1.06203,-3.04448 -3.92595,-4.5863 -7.77228,-4.18428 -4.82277,0.50408 -7.99839,3.87325 -9.43914,10.01445 -0.7821,3.33376 -0.78777,23.23977 -0.008,26.91357 0.27882,1.31313 0.40683,2.48036 0.28446,2.59384 -0.12237,0.11349 -1.10001,0.0762 -2.17251,-0.0829 -1.7733,-0.26303 -5.77644,-0.13051 -6.69399,0.22159 -0.20511,0.0787 -0.52452,-0.009 -0.7098,-0.19382 z m 97.1847,0.008 c -4.04394,-0.79814 -6.71415,-3.01618 -8.23482,-6.84034 -0.6558,-1.64919 -0.67827,-2.08145 -0.86037,-16.54344 -0.19914,-15.81525 -0.26355,-16.51632 -1.7934,-19.51507 -0.72855,-1.42807 -0.86145,-1.35253 3.13215,-1.78013 1.63596,-0.17516 3.89055,-0.63705 5.01021,-1.02643 1.11966,-0.38938 2.09109,-0.6526 2.15874,-0.58495 0.0676,0.0677 -0.0108,0.69306 -0.17412,1.38979 -0.16458,0.70167 -0.35655,7.91662 -0.43032,16.17324 -0.11631,13.0174 -0.0719,15.14641 0.35007,16.8 0.59592,2.33511 1.68894,3.76488 3.62628,4.74355 2.07087,1.04612 6.12282,1.05894 8.45277,0.0267 2.81352,-1.24641 4.69335,-3.84386 5.84487,-8.07601 0.54363,-1.99812 0.64398,-3.39787 0.76284,-10.64252 0.14817,-9.03254 -0.13626,-12.94459 -1.14603,-15.7624 -0.33423,-0.93269 -0.68148,-1.91996 -0.77169,-2.19393 -0.13833,-0.42014 0.15741,-0.52898 1.88895,-0.69517 1.7784,-0.17069 5.92815,-1.0937 8.16369,-1.8158 0.69279,-0.22377 0.70563,-0.19621 0.50829,1.08976 -0.11133,0.72564 -0.27474,8.74434 -0.36309,17.81934 -0.17088,17.54968 0.015,21.64097 1.12341,24.73127 0.32922,0.9178 0.66771,1.87511 0.75225,2.12735 0.13266,0.39591 -0.37176,0.45744 -3.68895,0.45 -2.11347,-0.005 -4.31514,0.0589 -4.89264,0.14137 l -1.05,0.15 -0.15,-4.10122 c -0.135,-3.69137 -0.44178,-5.27254 -0.81825,-4.21729 -0.35565,0.99698 -2.65776,4.07446 -3.77826,5.05082 -1.5711,1.36901 -4.36386,2.71192 -6.47073,3.11148 -1.87404,0.3554 -5.32488,0.35057 -7.15185,-0.01 z m 55.53234,-0.0433 c -0.0806,-0.13043 0.0297,-1.35166 0.2451,-2.71384 0.28506,-1.80275 0.39165,-6.68088 0.39165,-17.92669 0,-14.02368 -0.0517,-15.67157 -0.55989,-17.85 -0.5145,-2.20551 -1.12521,-3.69267 -2.05764,-5.01061 -0.19869,-0.28084 -0.29829,-0.57356 -0.22137,-0.6505 0.0769,-0.0769 1.2669,-0.29419 2.64435,-0.48279 1.37745,-0.1886 3.65748,-0.67704 5.06673,-1.08543 1.40925,-0.40838 2.69802,-0.69727 2.86392,-0.64197 0.18834,0.0628 0.27792,1.81389 0.23847,4.66092 -0.0347,2.50821 0.0519,4.56038 0.19251,4.56038 0.14061,0 0.82446,-0.86514 1.51965,-1.92252 3.36246,-5.11429 8.37417,-7.37645 15.501,-6.99677 3.34734,0.17833 5.37552,0.75582 7.29696,2.07766 1.72938,1.1897 2.62833,2.64049 3.40716,5.49867 0.61473,2.256 0.66477,3.29437 0.87426,18.14296 0.15282,10.8324 0.3384,16.21834 0.59436,17.25 0.20469,0.825 0.38733,1.90087 0.40584,2.39083 0.0333,0.87998 0.0171,0.88916 -1.31631,0.75336 -1.78653,-0.18193 -4.85571,-0.17918 -6.9,0.006 l -1.65,0.14961 0.0279,-0.9 c 0.0153,-0.495 0.19428,-2.655 0.39783,-4.8 0.48144,-5.07349 0.309,-27.97832 -0.22275,-29.58529 -0.59631,-1.80214 -1.62282,-3.03798 -3.19533,-3.84692 -1.3356,-0.68706 -1.82451,-0.76525 -4.65,-0.74371 -2.50116,0.0191 -3.50964,0.16146 -4.85163,0.68501 -3.53721,1.37995 -5.74977,4.38437 -6.76857,9.19091 -0.73332,3.45974 -0.7578,24.06938 -0.0326,27.45 0.26547,1.2375 0.36561,2.32308 0.2226,2.41239 -0.14304,0.0893 -1.27644,0.0335 -2.51868,-0.12397 -1.43751,-0.18226 -3.08388,-0.18174 -4.52871,0.002 -1.24854,0.15829 -2.33604,0.18109 -2.41665,0.0507 z m 114.56556,-0.0948 c -4.23429,-0.91994 -7.75803,-3.71221 -9.9138,-7.85587 -2.0496,-3.93958 -2.59941,-6.73961 -2.58012,-13.1399 0.0144,-4.81621 0.0994,-5.71038 0.78471,-8.27095 2.22558,-8.31521 7.07775,-13.53125 14.54064,-15.63115 2.60415,-0.73274 8.2314,-0.92848 12.3582,-0.42986 l 2.21841,0.26804 -0.20733,-3.56804 c -0.22224,-3.82477 -0.78942,-6.36801 -1.70778,-7.65773 -0.31446,-0.44161 -0.57174,-0.92467 -0.57174,-1.07346 0,-0.14878 1.22922,-0.50616 2.73162,-0.79416 1.5024,-0.28801 3.89865,-0.92976 5.325,-1.42612 3.86805,-1.34603 3.64413,-1.30438 3.63711,-0.67656 -0.004,0.30799 -0.22374,2.17999 -0.48951,4.15999 -0.39615,2.95146 -0.50748,7.6916 -0.61806,26.31219 -0.12771,21.50604 -0.0551,24.49487 0.70053,28.83873 l 0.20022,1.15092 -2.66844,-0.195 c -1.46766,-0.10726 -3.30165,-0.0704 -4.07556,0.082 -0.94791,0.18662 -1.5108,0.17327 -1.725,-0.0409 C 794.5335,267.0135 794.4,265.527 794.4,263.65771 c 0,-1.77226 -0.12612,-3.30024 -0.28029,-3.39552 -0.15417,-0.0953 -0.77589,0.57341 -1.38162,1.48598 -3.22704,4.86175 -9.17166,6.87227 -15.95928,5.39761 z m 11.50785,-7.32958 c 2.98428,-1.31702 4.87713,-4.16066 5.50797,-8.27463 0.19518,-1.27289 0.28836,-6.20056 0.23805,-12.58934 l -0.0827,-10.49778 -1.87692,-0.66891 c -1.0323,-0.36789 -3.02493,-0.83488 -4.42806,-1.03776 -7.52985,-1.0887 -12.74259,2.56972 -14.90124,10.45804 -0.86436,3.15853 -0.93432,10.34498 -0.12945,13.29419 1.48233,5.43165 4.43382,8.86432 8.50602,9.89273 1.80477,0.45579 5.50095,0.15843 7.16631,-0.57654 z m 50.66334,7.38126 c -5.89368,-1.5396 -9.75,-6.83858 -9.75,-13.39746 0,-6.47678 3.40542,-10.91393 10.15965,-13.23773 2.91228,-1.00197 6.693,-1.53744 12.19035,-1.72653 l 5.4,-0.18574 -0.0261,-2.7 c -0.0459,-4.77335 -1.4235,-7.63204 -4.45356,-9.24187 -1.8372,-0.97608 -6.33984,-0.88965 -9.62046,0.18466 -2.89107,0.94676 -5.52186,2.4748 -7.36029,4.27512 -0.74817,0.73265 -1.51923,1.33209 -1.71345,1.33209 -0.19422,0 -0.504,-0.56024 -0.68838,-1.24498 -0.18438,-0.68474 -0.66207,-1.98403 -1.06155,-2.88733 -1.13283,-2.56153 -1.13127,-2.56412 2.34867,-3.9225 11.54316,-4.50582 22.65465,-4.41268 27.53598,0.23082 1.45617,1.38523 2.86569,4.36654 3.27351,6.92399 0.17988,1.12785 0.31266,7.51535 0.31497,15.15 0.003,7.26 0.13416,13.99475 0.29325,14.96612 0.15906,0.97136 0.69213,2.62713 1.18461,3.67949 l 0.89535,1.91338 -3.21132,-0.18847 c -1.76625,-0.10367 -3.91284,-0.0579 -4.77024,0.10162 -1.06446,0.19809 -1.65912,0.18984 -1.875,-0.026 -0.18867,-0.18868 -0.31797,-1.89434 -0.3207,-4.23112 -0.003,-2.15325 -0.11841,-4.09451 -0.25749,-4.31391 -0.18285,-0.28844 -0.48732,0.001 -1.09944,1.04562 -1.85274,3.16146 -4.86231,5.6682 -8.38848,6.98695 -2.23599,0.83625 -6.77394,1.09531 -9,0.5138 z m 10.78689,-7.06862 c 3.19098,-1.57092 5.67369,-5.00026 6.59079,-9.10383 0.60165,-2.69208 0.89808,-7.01188 0.49812,-7.25907 -0.17745,-0.10967 -1.70865,-0.27789 -3.40263,-0.37382 -7.91586,-0.44827 -13.21527,1.79236 -14.78904,6.2529 -1.81242,5.13695 0.0216,9.99396 4.29507,11.37423 1.64562,0.53151 4.74201,0.12653 6.80769,-0.89041 z m 55.44192,7.01693 c -4.23429,-0.91993 -7.75803,-3.71221 -9.9138,-7.85587 -2.0496,-3.93958 -2.59941,-6.73961 -2.58012,-13.1399 0.0144,-4.81621 0.0994,-5.71038 0.78471,-8.27095 2.22558,-8.31521 7.07775,-13.53125 14.54064,-15.63115 2.60415,-0.73274 8.2314,-0.92848 12.3582,-0.42986 l 2.21841,0.26804 -0.20733,-3.56804 c -0.22224,-3.82477 -0.78942,-6.36801 -1.70778,-7.65772 -0.31446,-0.44162 -0.57174,-0.92468 -0.57174,-1.07346 0,-0.14879 1.22922,-0.50617 2.73162,-0.79417 1.5024,-0.28801 3.89865,-0.92976 5.325,-1.42612 3.86805,-1.34603 3.64413,-1.30438 3.63711,-0.67656 -0.004,0.308 -0.22374,2.17999 -0.48951,4.15999 -0.39615,2.95146 -0.50748,7.6916 -0.61806,26.31219 -0.12771,21.50604 -0.0551,24.49487 0.70053,28.83873 l 0.20022,1.15092 -2.66844,-0.195 c -1.46766,-0.10726 -3.30165,-0.0704 -4.07556,0.082 -0.94791,0.18661 -1.5108,0.17326 -1.725,-0.0409 -0.18441,-0.18443 -0.31791,-1.67093 -0.31791,-3.54021 0,-1.77227 -0.12612,-3.30025 -0.28029,-3.39553 -0.15417,-0.0953 -0.77589,0.57341 -1.38162,1.48598 -3.22704,4.86175 -9.17166,6.87227 -15.95928,5.39761 z m 11.50785,-7.32958 c 2.98428,-1.31702 4.87713,-4.16066 5.50797,-8.27463 0.19518,-1.27289 0.28836,-6.20055 0.23805,-12.58934 l -0.0827,-10.49778 -1.87692,-0.6689 c -1.0323,-0.3679 -3.02493,-0.83489 -4.42806,-1.03776 -7.52985,-1.08871 -12.74259,2.56971 -14.90124,10.45803 -0.86436,3.15853 -0.93432,10.34498 -0.12945,13.29419 1.48233,5.43165 4.43382,8.86432 8.50602,9.89273 1.80477,0.45579 5.50095,0.15843 7.16631,-0.57654 z M 728.55213,267 c -0.05,-0.0825 0.12678,-1.1625 0.39282,-2.4 0.41001,-1.90721 0.48531,-4.6952 0.49437,-18.3 0.01,-14.38635 -0.0449,-16.28671 -0.5256,-18.33367 -0.29493,-1.25602 -0.80118,-2.80331 -1.125,-3.43843 -0.32379,-0.63512 -0.58872,-1.31008 -0.58872,-1.49991 0,-0.20641 0.81393,-0.42524 2.025,-0.54442 1.11375,-0.10961 3.47769,-0.5543 5.25324,-0.98821 1.77552,-0.4339 3.30621,-0.71092 3.40152,-0.61561 0.0953,0.0953 0.0123,2.17511 -0.1842,4.62178 -0.53334,6.63653 -0.23256,34.84203 0.40416,37.89847 0.25779,1.2375 0.47586,2.5875 0.48456,3 l 0.0159,0.75 -4.97856,0 c -2.73819,0 -5.01945,-0.0675 -5.06946,-0.15 z m 2.39229,-50.20146 c -0.49806,-0.22616 -1.33515,-0.90046 -1.86021,-1.49846 -1.71588,-1.95429 -1.6752,-4.5335 0.10254,-6.50124 1.82901,-2.02451 4.5108,-2.33466 6.5748,-0.76037 1.36305,1.03965 2.00769,2.34373 2.00769,4.06153 0,1.72633 -0.64545,3.0225 -2.03157,4.07974 -1.26114,0.96192 -3.42297,1.241 -4.79325,0.6188 z"
       id="path4138-35"
       inkscape:connector-curvature="0" />
  </g>
  <g
     inkscape:groupmode="layer"
     id="layer9"
     inkscape:label="7"
     style="display:inline;opacity:1"
     sodipodi:insensitive="true">
    <g
       transform="translate(0,2.1e-6)"
       id="g7868"
       style="fill:#ffffff">
      <path
         style="fill:#ffffff"
         d="m 134.1941,309.44889 c -5.50814,-1.1973 -15.49371,-4.63989 -21.79777,-7.51497 C 88.408542,290.99391 66.085536,271.267 49.950108,246.75 37.910853,228.45693 29.433571,207.39238 25.970961,187.16605 24.193606,176.78388 24.152254,175.93525 24.123406,149.25 c -0.01926,-17.81294 -0.122718,-24.88915 -0.375,-25.64802 -0.60027,-1.80564 -0.399254,-3.05252 1.432104,-8.8832 3.70379,-11.79211 7.307966,-21.360139 10.985096,-29.162185 1.696314,-3.599193 1.764231,-3.691875 2.662554,-3.633459 0.507012,0.03297 1.156845,-0.04021 1.444071,-0.162627 1.079469,-0.460074 2.637168,-3.193467 5.134887,-9.010509 3.335967,-7.769277 4.522029,-9.995688 5.448867,-10.228308 0.49179,-0.123432 0.825561,-0.523773 1.063641,-1.275786 1.287801,-4.067721 5.385168,-8.773002 16.630374,-19.097775 3.465,-3.181386 6.969924,-6.473691 7.788723,-7.316235 1.664031,-1.712292 3.035826,-2.092149 3.215412,-0.89037 0.09018,0.603459 0.172911,0.577005 1.394199,-0.445779 C 85.046199,30.063933 91.801662,25.955077 99.75,22.060064 106.28937,18.855504 125.05469,10.8 125.98035,10.8 c 0.46096,0 0.61965,0.192073 0.61965,0.75 0,0.4125 0.10125,0.749481 0.225,0.748847 0.12375,-6.3e-4 2.25,-0.404873 4.725,-0.898308 2.475,-0.493436 5.68125,-0.985632 7.125,-1.09377 l 2.625,-0.196614 0,0.789172 c 0,0.63736 -0.27413,0.93187 -1.425,1.530955 l -1.425,0.741781 1.15893,0.01397 c 0.63741,0.0077 2.83138,0.237 4.87549,0.509594 2.75859,0.367875 3.89042,0.411772 4.39107,0.170304 0.63592,-0.306711 0.61873,-0.326483 -0.30049,-0.345626 C 147.74041,13.502924 147.6,13.391989 147.6,12.75 l 0,-0.75 3.375,0.03549 c 4.48352,0.04715 5.15003,0.201603 5.26798,1.220752 0.11455,0.989757 -0.3486,1.266525 -2.95008,1.762888 -1.06859,0.20389 -2.6179,0.540728 -3.4429,0.748528 -2.55878,0.644501 -0.10294,0.514875 3.77253,-0.199125 3.6477,-0.672037 7.46891,-0.858776 10.1917,-0.498059 l 1.66423,0.220478 -0.12205,-1.045478 C 165.24152,13.261311 165.28598,13.2 166.11463,13.2 c 0.48415,0 1.88267,0.34339 3.10782,0.763088 1.22515,0.419699 5.06255,1.646327 8.52755,2.725842 7.14795,2.226932 11.07067,3.764624 16.33231,6.4022 l 3.65865,1.834027 2.30452,-0.66424 c 2.94159,-0.847864 6.67891,-0.867492 9.05452,-0.04755 1.43923,0.496749 1.73682,0.742233 2.32969,1.921764 0.37383,0.743748 1.21758,1.877503 1.875,2.519455 l 1.19531,1.167186 0,-0.810885 c 0,-1.668469 1.80753,-0.970023 7.94238,3.069007 17.67465,11.636553 32.85682,30.532464 38.54388,47.972163 1.14526,3.51204 1.1909,4.547946 0.20033,4.547946 -0.40087,0 -0.91886,-0.29571 -1.18239,-0.675 -0.43505,-0.626163 -0.45725,-0.457953 -0.30675,2.325 0.13503,2.497095 0.4076,3.759738 1.62602,7.532091 1.84541,5.713623 3.55086,12.560866 3.7841,15.192906 0.17798,2.00837 0.17329,2.025 -0.57133,2.025 -0.69855,0 -0.80818,-0.21392 -1.57581,-3.075 -2.25373,-8.400051 -5.80575,-17.876328 -8.65926,-23.101659 -1.31255,-2.403522 -1.48641,-2.598831 -2.04655,-2.299053 -0.33667,0.180183 -1.44295,0.282183 -2.45838,0.226662 -1.71484,-0.09376 -1.85298,-0.05355 -1.94091,0.564966 -0.0958,0.673437 0.52303,3.415788 1.12631,4.991694 0.26644,0.696015 0.40874,0.790851 0.75519,0.503322 0.23479,-0.194856 0.80583,-0.310779 1.26898,-0.257607 1.35259,0.155286 2.58962,2.53224 3.03657,5.834784 0.19814,1.464042 0.76294,4.349394 1.25512,6.411891 0.49218,2.0625 0.98148,4.39125 1.08734,5.175 0.19228,1.42369 0.19164,1.425 -0.69969,1.425 -0.51207,0 -1.1242,-0.2564 -1.43682,-0.60184 -0.29956,-0.33101 -0.5962,-0.55029 -0.6592,-0.48729 -0.19958,0.19958 1.33336,3.41836 2.29059,4.80965 1.08104,1.57124 1.21301,2.8591 0.317,3.09341 -0.33181,0.0868 -0.6876,0.4937 -0.79065,0.9043 -0.29076,1.15848 0.0766,5.2203 0.58146,6.42853 0.44812,1.0725 0.47174,1.08413 1.88018,0.92538 l 1.42636,-0.16077 -0.18194,1.46931 c -0.10007,0.80813 -0.80264,3.13717 -1.56127,5.17565 -2.29324,6.16206 -2.6177,8.10916 -2.11943,12.71867 l 0.25133,2.325 -0.73233,0 c -0.64228,0 -0.8155,-0.25822 -1.40868,-2.1 -0.37199,-1.155 -0.71825,-2.1 -0.76945,-2.1 -0.0512,0 -0.0256,1.52972 0.0569,3.39938 0.15957,3.61601 -0.14506,6.0937 -1.14878,9.34335 -0.54137,1.75275 -0.68603,1.95727 -1.38445,1.95727 -0.76384,0 -0.77619,-0.0325 -0.59895,-1.575 0.0995,-0.86625 0.25927,-1.9125 0.35497,-2.325 0.0957,-0.4125 -0.23413,0.31501 -0.73296,1.61669 -0.49883,1.30169 -2.05171,4.74419 -3.45083,7.65 -2.59032,5.37978 -3.49598,8.13605 -3.24199,9.8666 0.13241,0.90216 0.0829,0.96671 -0.74131,0.96671 -0.70458,0 -1.08148,-0.2761 -1.86358,-1.36516 -0.53921,-0.75084 -1.12214,-1.3179 -1.2954,-1.26015 -0.17326,0.0577 -0.90077,1.17833 -1.61669,2.49016 -1.25716,2.30359 -1.3018,2.47622 -1.30546,5.04834 -0.003,2.37453 -0.10579,2.87039 -0.94496,4.575 -0.84184,1.71002 -1.03543,1.91181 -1.83405,1.91181 -0.83298,0 -0.88053,-0.0604 -0.70882,-0.9 0.62897,-3.07564 0.89847,-3.16504 -3.61734,1.2 -5.1485,4.9766 -8.20418,7.5 -9.08204,7.5 -0.55362,0 -3.24826,2.10727 -6.33581,4.95476 -1.48635,1.37078 -9.6409,4.32097 -17.53076,6.34234 l -4.5,1.1529 -6.9,0 c -8.4908,0 -17.0549,-0.55235 -20.88332,-1.3469 -13.7922,-2.8624 -28.08387,-10.41555 -37.46743,-19.80153 -9.49842,-9.50086 -14.7628,-21.00683 -16.2292,-35.47091 -0.29335,-2.8936 -0.27155,-3.99321 0.13892,-7.00646 1.32349,-9.71567 4.95051,-20.0164 10.67675,-30.32194 C 131.10167,89.476659 143.21924,77.910891 157.46846,73.199076 162.40957,71.565192 165.61085,71.1 171.91357,71.1 c 11.63337,0 19.04091,2.690835 26.07531,9.472014 5.19336,5.006412 8.24058,10.727019 9.47031,17.778762 0.58222,3.338754 0.57896,11.178424 -0.006,14.533164 -1.29778,7.44199 -5.28494,15.78128 -11.56081,24.17986 -7.13308,9.54573 -15.06588,15.75235 -23.28254,18.21625 -2.20229,0.66038 -3.43664,0.8227 -7.17621,0.94367 l -4.51643,0.14609 -1.46891,-1.27134 c -1.44026,-1.24653 -1.50194,-1.26788 -3.16224,-1.09434 -1.77723,0.18575 -8.84046,2.158 -13.936,3.8913 -2.49373,0.84827 -2.98498,1.11617 -2.91102,1.58752 0.20471,1.30456 3.48711,7.35486 5.28382,9.73941 6.57886,8.73129 17.47515,15.23883 30.35174,18.12681 7.6543,1.71672 15.36868,2.13947 19.17546,1.05083 1.15395,-0.33 2.75146,-0.6 3.55001,-0.6 1.35952,0 1.56961,-0.11164 3.30096,-1.75405 3.26328,-3.09564 5.2447,-4.54595 6.21071,-4.54595 0.72695,0 0.88833,0.12535 0.88833,0.69 0,0.3795 -0.15975,0.84975 -0.355,1.045 -0.19525,0.19525 -0.29442,0.41558 -0.22037,0.48963 0.44725,0.44725 16.85058,-13.85767 17.39351,-15.16844 0.20154,-0.48655 0.39126,-2.05948 0.4216,-3.49541 0.0421,-1.99249 0.21428,-2.9511 0.72707,-4.04782 0.597,-1.2768 0.91637,-1.55799 2.86433,-2.52187 l 2.19242,-1.08484 1.26977,-3.32812 c 1.50514,-3.94501 2.8373,-8.01679 3.10094,-9.47813 l 0.18944,-1.05 -0.45144,0.825 c -0.60593,1.10735 -1.93227,1.17224 -1.93227,0.0945 0,-0.40176 0.13335,-1.08121 0.29633,-1.50989 0.60554,-1.59269 1.48942,-6.7251 1.77965,-10.33383 C 235.89015,127.47593 235.54546,111 235.02355,111 c -0.24198,0 -0.44655,-0.62762 -0.56226,-1.725 -0.99734,-9.459213 -3.1869,-16.767492 -7.61212,-25.407705 -2.11011,-4.119966 -6.00002,-10.220823 -8.92888,-14.003883 -7.9345,-10.24857 -18.60028,-19.25901 -27.86307,-23.538684 -9.70078,-4.482036 -22.4611,-7.046853 -35.03676,-7.042374 -7.64686,0.0027 -12.70608,0.711579 -17.62046,2.468832 -1.4025,0.501498 -2.99926,0.981135 -3.54836,1.065861 -0.94958,0.146523 -0.99355,0.112347 -0.9,-0.699546 0.0627,-0.543744 0.37061,-0.996099 0.84836,-1.246167 0.70126,-0.367056 0.67202,-0.379977 -0.45,-0.198846 -2.87204,0.463641 -6.9495,2.095443 -10.32688,4.132824 -1.91022,1.152324 -4.41812,2.540184 -5.57312,3.084135 -1.155,0.543951 -1.86375,0.993852 -1.575,0.999777 0.37542,0.0077 0.525,0.25584 0.525,0.870909 0,0.666156 -0.26154,1.033212 -1.15969,1.627584 -1.48868,0.985158 -2.65077,1.281651 -7.24031,1.847283 -4.42802,0.545724 -5.54939,0.832725 -7.95,2.034702 -1.894851,0.948744 -5.335683,3.36474 -6.283302,4.411848 -0.49776,0.55002 -0.504753,0.61845 -0.0632,0.61845 0.912645,0 0.617832,1.854813 -0.534732,3.364281 -0.995388,1.303617 -1.097301,1.355862 -2.932053,1.503138 -3.779202,0.30336 -9.077346,3.289215 -15.702756,8.84955 -3.86713,3.245472 -12.161911,11.57406 -15.625231,15.688926 C 56.420967,92.661669 52.5,97.836315 52.5,98.163729 c 0,0.123663 0.352971,0.313431 0.784377,0.421707 1.510827,0.379191 0.930534,2.065224 -4.172487,12.123104 -2.5557,5.0372 -4.929693,10.07467 -5.275536,11.19439 -0.345846,1.11972 -0.769089,3.54587 -0.940539,5.39146 -0.17145,1.84558 -0.705036,7.06811 -1.18575,11.60561 -1.285461,12.13361 -1.52928,15.5936 -1.538067,21.82646 -0.008,5.67709 0.263076,8.63181 1.093917,11.92354 0.431763,1.7106 1.791561,4.81338 2.588808,5.90712 0.291462,0.39985 0.294228,1.33934 0.01308,4.44165 l -0.356565,3.93453 1.494378,2.9779 c 1.528257,3.0454 1.864083,4.4888 1.044384,4.4888 -0.627054,0 -0.567765,0.53646 0.33786,3.05712 1.28352,3.57247 2.959323,6.635 4.286979,7.83446 0.67479,0.60963 1.327752,1.1092 1.451025,1.11016 1.330062,0.0103 4.001559,0.73521 4.899543,1.32946 0.620763,0.41081 1.750512,1.61836 2.510547,2.68346 1.704216,2.38824 4.976835,9.15503 5.187597,10.72638 0.154023,1.14831 0.146088,1.15896 -0.863493,1.15896 -0.560418,0 -1.541505,-0.28008 -2.18019,-0.62239 -1.07679,-0.57712 -1.146258,-0.58258 -0.955167,-0.075 0.460221,1.22244 3.526998,6.39044 4.952571,8.34586 0.837501,1.14877 1.522728,2.35419 1.522728,2.67869 0,0.3245 -0.339297,0.94416 -0.753993,1.37701 l -0.753996,0.787 1.182513,1.65136 c 0.650382,0.90824 1.934679,2.23165 2.853993,2.9409 1.372659,1.05899 1.671483,1.45093 1.671483,2.1923 0,0.86357 -0.04544,0.8954 -1.046157,0.73301 l -1.046157,-0.16977 0.571869,1.10551 c 1.124187,2.17325 10.428903,15.29494 10.875228,15.33647 C 80.867415,258.59142 81.045261,258.33 81.15,258 c 0.271446,-0.85525 1.525935,-0.80182 1.760913,0.075 0.09949,0.37125 0.182739,0.92812 0.184992,1.23748 0.01095,1.5017 2.401848,5.84325 5.510544,10.00638 l 1.843551,2.46886 2.260317,0.006 c 2.224236,0.006 2.26941,0.0215 2.829897,0.97036 1.717788,2.90798 7.734086,8.05105 10.434786,8.92024 1.39579,0.44922 1.50095,1.36267 0.33316,2.89372 -0.43551,0.57098 -0.73926,1.07803 -0.675,1.12676 0.0643,0.0487 0.79184,0.33267 1.61684,0.63098 1.84101,0.66568 3.10657,1.39851 5.25,3.04009 1.61528,1.23708 5.06322,3.12399 5.70846,3.12399 0.19166,0 0.13348,-0.27423 -0.14145,-0.66675 -0.25685,-0.36671 -0.46701,-1.04171 -0.46701,-1.5 0,-0.70898 0.12303,-0.83325 0.82492,-0.83325 0.67164,0 1.74475,0.94025 5.775,5.05999 8.72926,8.92307 11.32261,10.09553 29.32508,13.25804 3.49683,0.61428 3.675,0.6804 3.675,1.36377 l 0,0.7182 -10.575,-0.024 c -7.65846,-0.0174 -11.08685,-0.13512 -12.4309,-0.42726 z M 250.40493,149.04375 c -0.0958,-0.23932 -0.16685,-0.16823 -0.18124,0.18125 -0.013,0.31625 0.0579,0.49344 0.15756,0.39375 0.0997,-0.0997 0.11034,-0.35844 0.0237,-0.575 z m 0.29375,-1.51875 c -0.0832,-0.20625 -0.15131,-0.0375 -0.15131,0.375 0,0.4125 0.0681,0.58125 0.15131,0.375 0.0832,-0.20625 0.0832,-0.54375 0,-0.75 z m 0.32137,-4.19207 c -0.0634,-0.70561 -0.11612,-0.20293 -0.11721,1.11707 -0.001,1.32 0.0508,1.89732 0.11523,1.28293 0.0645,-0.61439 0.0653,-1.69439 0.002,-2.4 z m -92.84726,-14.86315 c 10.65561,-5.33489 16.80679,-9.492 19.0558,-12.87834 l 1.12141,-1.6885 0.10388,-6.69791 0.10388,-6.69792 -0.75174,-0.28581 c -1.4907,-0.566763 -5.51115,-1.271514 -8.1961,-1.436706 -2.68015,-0.164895 -2.7773,-0.147291 -4.44128,0.804741 -6.35288,3.634755 -14.78657,12.160135 -20.61533,20.839485 -2.51592,3.74634 -3.67749,6.11007 -3.25358,6.62085 0.65851,0.79346 4.25541,2.94651 6.08401,3.64181 3.22569,1.22651 4.37418,0.99001 10.78905,-2.2217 z M 339.0222,241.425 c -1.36692,-4.67512 -8.47101,-19.83384 -17.39373,-37.11485 C 312.52083,186.67101 296.41589,156.6 296.07664,156.6 c -0.0959,0 -1.00584,0.75242 -2.02206,1.67205 -2.68927,2.43364 -6.16455,6.89545 -10.45983,13.42905 -10.90592,16.58916 -12.70328,19.10971 -14.24302,19.97395 -1.10488,0.62016 -2.7793,0.0665 -4.57264,-1.51212 -2.40777,-2.1194 -3.29459,-4.56117 -3.63657,-10.01293 -0.35828,-5.71161 -1.42798,-9.11408 -3.63307,-11.55596 l -1.15945,-1.28396 0,-3.93004 c 0,-3.44773 0.0791,-4.07779 0.64484,-5.13397 0.9152,-1.7087 2.06352,-2.75914 4.14478,-3.79148 2.4016,-1.19123 4.455,-2.8075 7.11655,-5.60155 9.1376,-9.59249 15.08273,-20.88327 14.01249,-26.612 -0.33973,-1.81847 -0.37555,-1.88874 -5.50003,-10.79104 -8.9031,-15.46656 -11.23265,-21.533076 -10.90239,-28.391538 0.12204,-2.534376 0.27343,-3.206361 1.10117,-4.887729 1.15906,-2.354388 2.3196,-3.366861 5.88259,-5.132067 3.21649,-1.593543 5.26142,-2.039385 8.1,-1.765986 4.29769,0.413931 6.1876,1.468023 7.52195,4.195326 0.75062,1.534209 0.82586,2.013468 0.90704,5.77749 0.12741,5.90748 0.56383,7.159317 5.90207,16.929504 1.32975,2.43375 2.52848,4.425 2.66383,4.425 0.47059,0 3.42053,-1.92041 5.93723,-3.865134 3.86202,-2.984286 7.67154,-6.957669 14.55861,-15.184866 9.5301,-11.384538 13.07046,-15.426423 15.40749,-17.590152 5.94357,-5.502849 14.33535,-9.393771 21.05178,-9.760866 l 2.85,-0.155772 1.02165,1.903395 c 1.27146,2.368836 5.24517,6.414219 7.60335,7.740504 1.46073,0.821544 1.725,1.099341 1.725,1.813386 0,0.665676 -0.30894,1.065183 -1.46733,1.897386 -9.64899,6.932121 -30.62193,30.147132 -46.92645,51.943049 -4.56585,6.10363 -8.99025,12.70754 -8.81649,13.15952 0.0739,0.19225 1.28097,1.97961 2.68233,3.97192 7.21416,10.25626 10.09455,14.96807 16.95039,27.72763 8.44779,15.72243 32.17755,62.56492 32.17755,63.51846 0,0.33954 -0.16875,0.68795 -0.375,0.77424 -0.20625,0.0863 -2.80218,2.05171 -5.76873,4.36759 -2.96655,2.31588 -6.20655,4.69318 -7.2,5.28288 -2.39799,1.42343 -6.04368,2.55683 -8.22426,2.55683 l -1.73703,0 -0.37278,-1.275 z M 247.8,174.34382 c 0,-0.4709 0.59229,-2.12465 1.3162,-3.675 2.82957,-6.05992 5.48164,-14.59584 6.75333,-21.7362 0.73059,-4.10214 1.07911,-4.93262 2.07005,-4.93262 0.73732,0 0.74163,0.0161 0.53802,2.00339 -0.74555,7.27705 -3.89062,17.82245 -7.74578,25.97161 -1.3003,2.74861 -1.62953,3.225 -2.22874,3.225 -0.5732,0 -0.70308,-0.15816 -0.70308,-0.85618 z m -76.95,-2.43805 c -1.32,-0.299 -3.21,-0.86885 -4.2,-1.26634 -1.69316,-0.6798 -1.80544,-0.78697 -1.89159,-1.80558 -0.12129,-1.43399 0.29865,-1.54938 4.70086,-1.29173 2.55537,0.14956 4.32885,0.0775 6.61857,-0.26891 4.13368,-0.62539 4.22216,-0.62044 4.22216,0.23574 0,0.70948 -1.61112,2.42183 -3.92832,4.17514 -1.27036,0.96122 -2.10834,0.99487 -5.52168,0.22168 z M 111.9,165.45 c 0,-0.6 0.15,-0.75 0.75,-0.75 0.6,0 0.75,0.15 0.75,0.75 0,0.6 -0.15,0.75 -0.75,0.75 -0.6,0 -0.75,-0.15 -0.75,-0.75 z m 81.21348,-3.74845 c -0.0923,-0.35277 -0.72241,-0.84102 -1.53499,-1.18934 l -1.37849,-0.59089 0.004,-1.58566 c 0.004,-1.7738 0.51913,-2.84775 3.0963,-6.45576 1.27552,-1.78571 1.69622,-2.17096 2.37509,-2.175 0.69182,-0.004 0.825,0.12228 0.825,0.78299 0,0.84154 -1.12292,3.22737 -2.65476,5.6405 -0.51615,0.81311 -0.89078,1.52608 -0.83249,1.58437 0.0583,0.0583 0.52148,-0.13249 1.02932,-0.42395 1.07717,-0.61821 3.40016,-4.58205 4.44739,-7.58881 0.57374,-1.64732 0.79802,-1.96474 1.44485,-2.04493 0.96543,-0.11969 0.99424,0.45532 0.18191,3.63148 -0.71159,2.78228 -2.19175,6.04763 -4.02819,8.88648 -1.07667,1.66437 -1.53276,2.12697 -2.09699,2.12697 -0.46814,0 -0.77596,-0.20992 -0.87756,-0.59845 z m 9.18348,-24.37655 c -0.66945,-1.05281 -1.59356,-3.80075 -1.58898,-4.725 0.003,-0.5775 0.26563,-1.62375 0.58394,-2.325 0.53998,-1.18961 0.65874,-1.275 1.7732,-1.275 0.9728,0 1.23571,0.12526 1.41682,0.675 0.26982,0.81904 0.25039,6.53546 -0.0252,7.40367 -0.22455,0.7075 -1.75554,0.88211 -2.15981,0.24633 z M 21.9,103.3351 c 0,-4.311577 0.136614,-4.870678 1.700684,-6.9601 C 24.436691,95.258187 25.8,95.00016 25.8,95.958744 c 0,0.76878 -1.404125,7.604756 -1.995742,9.716256 -0.414214,1.47835 -0.584911,1.725 -1.193791,1.725 l -0.710467,0 0,-4.0649 z m 6,-22.380199 c 0,-0.354804 0.358444,-1.377732 0.796543,-2.273175 0.566448,-1.157778 0.837825,-2.27133 0.939452,-3.854901 C 29.770899,72.72474 29.818707,72.6 30.489453,72.6 30.880254,72.6 31.2,72.727239 31.2,72.88275 c 0,0.155514 0.57375,0.324264 1.275,0.375 1.241157,0.0898 1.277496,0.122541 1.369074,1.233432 0.05174,0.627648 -0.189882,1.977648 -0.536937,3 C 32.752836,79.124025 32.479173,79.486767 31.056039,80.475 29.19204,81.769377 27.9,81.965844 27.9,80.954901 Z M 146.4528,9.9985413 146.55,9.15 l 3.3,-0.3395721 c 1.815,-0.1867647 5.22375,-0.4425564 7.575,-0.5684262 l 4.275,-0.2288538 0,0.769548 c 0,0.7267752 -0.10421,0.778512 -1.875,0.930828 -1.03125,0.088704 -3.4275,0.3243351 -5.325,0.5236251 -1.8975,0.199289 -4.50624,0.418052 -5.7972,0.486139 l -2.3472,0.123794 0.0972,-0.8485407 z"
         id="path7872"
         inkscape:connector-curvature="0" />
      <path
         style="fill:#ffffff"
         d="m 101.25,22.8 c 0.10198,-0.165 0.41369,-0.297933 0.69271,-0.295406 0.43718,0.004 0.4451,0.04479 0.0573,0.295406 -0.58751,0.379679 -0.98465,0.379679 -0.75,0 z"
         id="path7870"
         inkscape:connector-curvature="0" />
    </g>
  </g>
</svg>
